<svg width="10" height="6" viewBox="0 0 10 6" fill="none" xmlns="http://www.w3.org/2000/svg">
<path fill-rule="evenodd" clip-rule="evenodd" d="M7.50029 0.444089C7.37249 0.321971 7.20678 0.222854 7.01626 0.154588C6.82575 0.0863216 6.61568 0.0507813 6.40269 0.0507812H1.372C1.00813 0.0507813 0.659151 0.154375 0.401851 0.338774C0.14455 0.523173 0 0.773272 0 1.03405V4.96713C0 5.22791 0.14455 5.47801 0.401851 5.66241C0.659151 5.84681 1.00813 5.9504 1.372 5.9504H6.40269C6.61568 5.9504 6.82575 5.91486 7.01626 5.84659C7.20678 5.77833 7.37249 5.67921 7.50029 5.55709L9.5583 3.59055C9.73641 3.42035 9.8327 3.21334 9.8327 3.00059C9.8327 2.78784 9.73641 2.58083 9.5583 2.41063L7.50029 0.444089Z" fill="#41B2F9"/>
</svg>
