<svg width="375" height="337" viewBox="0 0 375 337" fill="none" xmlns="http://www.w3.org/2000/svg">
<path d="M204.728 43.8744C190.732 41.9843 183.695 39.7997 179.148 24.7824C166.717 33.2872 164.411 43.7597 166.884 70.4534L201.575 122.488L204.728 143.827L186.507 165.165L157.423 188L145.859 252.389C152.437 271.655 148.07 282.485 139.902 301.803L134.646 334.372H64.2131C58.2102 313.86 59.0013 303.926 67.0164 288.701L80.6825 255.384L91.5453 188C98.8956 179.135 100.59 172.421 98.5535 157.303C93.2775 128.456 88.6644 112.066 134.646 89.9197C150.726 80.5413 153.732 70.0274 153.218 46.1205C157.821 24.9383 159.729 8.60301 191.763 7.18779C250.54 -15.5327 256.397 18.6575 269.555 74.9456C274.708 100.556 281.333 107.116 294.083 116.873C326.503 143.055 331.106 171.607 308.1 235.917L327.022 289.075C335.058 305.197 338.566 314.648 337.885 334.372H268.153C263.642 321.724 262.237 313.064 263.247 292.819L291.28 248.271C278.056 236.463 272.5 229.293 271.657 213.831C254.303 194.048 230.309 167.411 231.71 162.919C233.112 158.426 210.905 139.344 214.453 122.488C223.481 115.773 221.065 113.714 224.351 101.15L231.71 89.9197C256.262 82.0342 277.78 73.5894 253.786 67.0842C242.903 76.0859 236.565 76.2445 224.351 61.0946C221.31 51.6594 218.506 47.0128 204.728 43.8744Z" fill="#323B7C"/>
<path d="M95.048 269.235C92.0354 276.565 90.2638 280.599 98.2017 298.06C101.697 321.052 97.811 326.125 89.4414 333.249M119.927 278.219C111.2 286.89 108.956 293.284 116.774 311.536C121.228 324.19 122.384 328.449 123.081 333.249M277.963 306.67C287.521 318.855 291.653 325.234 289.877 333.249M305.646 311.536C312.297 318.359 315.075 322.877 316.859 333.249" stroke="#5A5F97" stroke-width="0.700824"/>
<path d="M183.002 13.5516C184.713 27.6639 189.496 32.2923 201.574 37.5102C217.743 40.1191 223.886 45.738 233.462 57.7253C236.411 65.4832 238.463 68.4563 243.273 69.7045M196.669 13.5516C202.195 27.9941 207.691 31.5847 221.548 30.7719C244.647 29.7023 249.454 36.0018 252.735 51.7356M210.335 10.5568C212.282 15.161 214.228 17.0034 221.548 16.9208C229.126 16.9337 232.998 17.7617 237.667 24.0335M196.669 7.562C240.559 3.74713 257.32 14.0653 265.7 66.7097C263.793 87.4687 264.599 98.7729 273.409 117.622C304.381 147.655 308.824 168.108 301.091 208.964C291.931 220.917 289.376 229.803 292.331 252.014M248.53 101.899C249.407 119.59 252.98 129.278 265.7 146.072C285.021 176.782 287.457 192.791 273.409 218.697M233.462 125.857C246.836 146.354 250.841 158.617 252.735 181.636M196.669 133.344C189.901 136.492 190.01 142.938 190.712 155.057M181.25 125.857C169.421 139.399 166.11 148.778 169.336 170.405M164.08 98.1553C162.129 109.924 160.109 116.199 152.166 125.857C140.37 138.479 138.321 147.941 140.252 167.785C144.971 184.883 143.61 189.18 142.705 198.856M156.02 89.9196C152.665 102.891 148.893 108.866 132.893 113.129C114.351 127.475 106.797 136.921 111.868 162.918C117.218 184.292 118.499 195.631 102.407 208.964M172.49 16.9208C161.314 28 158.838 36.3672 159.174 53.9817" stroke="#5A5F97" stroke-width="0.700824"/>
<circle cx="352.866" cy="170.97" r="1.84701" fill="#43BAE5"/>
<path d="M186.266 126.966C172.549 120.397 170.985 111.283 168.087 95.2637C168.968 100.285 166.987 99.4997 158.584 91.1387C153.438 83.3801 153.603 79.1543 155.08 71.6676C158.01 66.1748 160.005 64.1177 165.302 65.4369C165.361 62.0973 165.567 58.5379 165.943 54.533C165.533 34.8472 170.674 29.6526 176.455 21.0427C185.508 36.2131 191.883 40.1242 204.838 41.2927C203.163 47.9169 208.722 50.4458 220.957 54.533C228.408 63.8954 232.868 68.9061 244.435 74.783C248.148 65.3702 250.889 63.4373 256.349 62.7109C268.055 68.0445 270.971 72.7943 266.161 86.0762C261.142 96.6811 255.828 98.7213 244.435 99.3166C241.175 112.727 237.677 116.949 231.119 123.85C213.436 132.495 203.67 130.63 186.266 126.966Z" fill="#FAAAA9"/>
<circle cx="226.717" cy="105.547" r="12.9291" fill="#F39897" fill-opacity="0.4"/>
<path d="M190.879 102.834C192.853 109.696 188.891 116.859 182.029 118.834C175.166 120.808 173.053 115.393 171.079 108.53C169.104 101.668 168.017 95.9576 174.879 93.9834C181.741 92.0091 188.905 95.9716 190.879 102.834Z" fill="#F39897" fill-opacity="0.4"/>
<path d="M193.777 51.8069C196.478 61.6936 197.199 66.7862 193.777 73.2251C188.915 84.4267 190.356 88.5729 199.734 92.3068M195.88 98.1481C201.887 100.955 204.366 100.06 207.444 93.8645" stroke="black" stroke-width="0.700824"/>
<ellipse cx="213.752" cy="72.8357" rx="0.700824" ry="5.06249" fill="black"/>
<ellipse cx="180.813" cy="72.8357" rx="0.700824" ry="5.06249" fill="black"/>
<path d="M157.988 79.4559C155.549 70.3311 156.018 65.2152 157.587 56.0906H235.028L273.574 59.206V61.5425H235.028C235.51 68.2026 236.236 71.6201 235.028 79.4559C225.581 98.7821 211.346 101.948 198.235 79.4559C197.562 74.4673 196.948 70.7216 194.731 65.8261C192.656 69.3726 192.05 72.3041 190.576 79.4559C176.609 99.0821 163.293 95.2324 157.988 79.4559Z" fill="#CEE1FE" fill-opacity="0.22"/>
<path d="M192.552 144.531C194.679 136.737 195.117 132.385 195.158 124.636C212.242 127.399 217.663 125.678 224.943 120.735C224.641 129.235 224.507 133.903 224.943 140.63C228.23 150.512 229.509 153.852 231.272 157.795L227.549 165.207C205.958 172.577 196.647 171.034 183.616 160.916V152.333C187.914 149.538 189.839 147.821 192.552 144.531Z" fill="#FAAAA9"/>
<path d="M152.08 172.917C162.942 160.456 184.668 151.888 184.668 151.888C184.668 151.888 175.912 262.454 172.754 335.306H129.303C129.628 328.02 129.532 324.277 131.756 314.667C135.284 300.293 135.994 291.601 140.516 276.504C140.349 262.987 141.243 257.215 142.619 246.518C116.537 280.048 102.478 285.824 79.1939 256.254C62.6359 234.868 54.9693 219.898 44.8535 186.936L64.4766 175.254C80.5958 192.934 87.3171 202.79 111.081 217.311C117.328 208.115 141.217 185.379 152.08 172.917Z" fill="white"/>
<path d="M250.545 179.148C243.868 167.129 239.253 161.972 230.222 154.225C223.267 179.872 220.774 194.918 217.607 222.374C213.438 266.55 212.874 291.212 213.051 335.306H264.562L261.408 308.047L259.131 286.629L270.869 303.763C281.99 314.792 291.424 314.25 319.577 289.355C337.99 264.665 347.906 250.34 359.173 217.311L336.747 199.009C325.587 207.953 313.768 219.529 287.339 246.518C280.406 232.895 275.364 223.471 264.562 204.071C257.564 193.647 254.822 188.338 250.545 179.148Z" fill="white"/>
<path d="M231.273 161.966C212.631 171.89 202.261 171.509 183.709 158.119L182.916 172.652C201.448 183.656 211.746 181.941 230.084 176.071L231.273 161.966Z" fill="#3CA3AE"/>
<path d="M225.666 176.821C208.722 183.185 199.108 180.995 181.888 172.917C173.311 236.72 171.98 272.504 169.612 336.15L169.6 336.475H214.913C214.825 274.061 215.942 239.087 225.666 176.821Z" fill="#014875"/>
<path d="M159.203 190.328C164.012 174.842 184.316 156.172 184.316 156.172L170.651 302.205C170.651 302.205 156.689 268.331 151.402 238.624C156.873 226.93 161.538 222.729 171.23 217.258C165.099 208.362 161.813 203.203 159.203 190.328Z" fill="#E5F3F4"/>
<path d="M243.994 197.84C241.722 181.653 237.733 173.626 229.17 160.066C216.061 178.011 213.402 306.489 215.504 306.879C217.607 307.268 234.068 275.11 243.994 246.908C240.468 234.324 236.544 229.273 227.875 221.985C235.324 214.432 239.378 210 243.994 197.84Z" fill="#E5F3F4"/>
<path d="M348.34 179.804C348.34 179.804 342.703 180.023 342.703 176.081C342.703 172.139 348.34 172.139 348.34 172.139H369.656C369.656 172.139 374.941 172.139 374.941 176.081C374.941 180.023 369.656 179.804 369.656 179.804V280.765C369.656 280.765 369.656 289.744 359.791 289.744C349.926 289.744 348.34 280.765 348.34 280.765V179.804Z" fill="#DAE7FD" fill-opacity="0.69"/>
<path d="M35.2976 153.057C31.6829 148.95 31.4249 146.649 35.2976 142.542L54.9207 144.1C59.8375 147.695 59.4561 150.133 54.9207 155.004V167.855L53.6131 183.432L58.8693 194.335C71.5415 220.363 75.4615 225.962 80.5008 238.73C81.8337 247.427 80.3193 250.412 70.3388 249.633L5.86297 244.181C-0.179857 241.126 -1.02385 238.206 0.957202 231.331C13.5394 212.04 20.3966 201.501 28.2894 188.883L35.2976 165.518V153.057Z" fill="#DAE7FD" fill-opacity="0.69"/>
<path d="M57.1744 201.734L29.1414 200.177C20.7667 211.884 16.5682 218.872 9.51835 231.72C8.4186 236.449 9.45922 237.988 13.7233 239.119L68.738 243.013C73.3113 241.708 73.9576 239.946 72.5925 234.835C67.5043 223.03 64.4415 216.156 57.1744 201.734Z" fill="#1DE1E0"/>
<circle cx="48.3571" cy="208.744" r="3.69403" fill="#3AFEFE"/>
<circle cx="52.5611" cy="228.994" r="2.21642" fill="#3AFEFE"/>
<circle cx="31.5367" cy="218.09" r="2.21642" fill="#3AFEFE"/>
<circle cx="30.1368" cy="231.331" r="1.47761" fill="#3AFEFE"/>
<path d="M36.8345 159.772C43.4721 160.125 46.8441 162.293 51.9022 171.065C51.9022 171.065 53.3038 175.349 51.9022 174.18C51.9022 174.18 53.3038 175.349 51.9022 176.517V179.243C52.521 181.311 52.3258 182.525 48.0482 185.084C38.2921 186.864 35.8221 185.776 32.9799 182.748C30.4798 176.512 30.0647 172.814 32.2791 165.613C33.4993 161.454 34.6881 160.812 36.8345 159.772Z" fill="#EE9A9A"/>
<path d="M51.9022 171.065C46.8441 162.293 43.4721 160.125 36.8345 159.772C34.6881 160.812 33.4993 161.454 32.2791 165.613C30.0647 172.814 30.4798 176.512 32.9799 182.748C35.8221 185.776 38.2921 186.864 48.0482 185.084C52.3258 182.525 52.521 181.311 51.9022 179.243M51.9022 171.065C46.8764 167.099 43.7974 165.424 37.5353 164.055M51.9022 171.065C51.9022 171.065 53.3038 175.349 51.9022 174.18M51.9022 174.18C50.5005 173.012 43.9687 169.937 37.5353 171.065M51.9022 174.18C51.9022 174.18 53.3038 175.349 51.9022 176.517M51.9022 176.517C50.5005 177.685 42.7146 177.549 36.8345 175.349M51.9022 176.517V179.243M51.9022 179.243C47.6672 181.83 43.7877 182.169 36.8345 182.748" stroke="#DE7E79" stroke-width="0.700824"/>
<path d="M52.5258 162.885C50.6094 170.386 50.0111 174.769 51.3618 183.483L64.0853 175.787C63.8878 173.006 63.7363 170.716 63.3672 163.641C63.6587 160.886 63.8052 159.343 59.8936 156.766C59.8936 156.766 45.7087 153.044 43.3045 152.096C40.9004 151.148 41.708 155.496 41.708 155.496C44.9336 160.697 47.249 162.475 52.5258 162.885Z" fill="#FAAAA9"/>
<path d="M366.882 190.926C360.245 191.279 356.873 193.447 351.815 202.219C351.815 202.219 350.413 206.503 351.815 205.335C351.815 205.335 350.413 206.503 351.815 207.671V210.397C351.196 212.465 351.391 213.679 355.669 216.238C365.425 218.018 367.895 216.931 370.737 213.902C373.237 207.666 373.652 203.968 371.438 196.767C370.217 192.608 369.029 191.966 366.882 190.926Z" fill="#EE9A9A"/>
<path d="M351.815 202.219C356.873 193.447 360.245 191.279 366.882 190.926C369.029 191.966 370.217 192.608 371.438 196.767C373.652 203.968 373.237 207.666 370.737 213.902C367.895 216.931 365.425 218.018 355.669 216.238C351.391 213.679 351.196 212.465 351.815 210.397M351.815 202.219C356.84 198.253 359.919 196.579 366.182 195.21M351.815 202.219C351.815 202.219 350.413 206.503 351.815 205.335M351.815 205.335C353.216 204.166 359.748 201.091 366.182 202.219M351.815 205.335C351.815 205.335 350.413 206.503 351.815 207.671M351.815 207.671C353.216 208.839 361.002 208.703 366.882 206.503M351.815 207.671V210.397M351.815 210.397C356.05 212.984 359.929 213.324 366.882 213.902" stroke="#DE7E79" stroke-width="1.40165"/>
<path d="M349.775 188.357C350.563 196.106 351.273 200.781 348.66 209.134L336.474 198.989C337.078 196.28 337.564 194.049 338.967 187.136C339.085 184.366 339.167 182.816 343.405 180.983C343.405 180.983 357.946 179.886 360.457 179.387C362.968 178.888 361.533 183.031 361.533 183.031C357.586 187.576 355.041 188.91 349.775 188.357Z" fill="#FAAAA9"/>
<path d="M350.798 276.167C350.652 255.613 350.655 242.655 350.829 220.192H368.212C368.013 242.133 368.005 253.988 368.174 274.565C368.199 277.51 367.056 280.42 364.722 282.216C360.984 285.093 357.968 285.845 354.093 283.233C351.813 281.698 350.818 278.915 350.798 276.167Z" fill="#43BAE5"/>
<circle cx="359.523" cy="151.11" r="1.47761" fill="#43BAE5"/>
<circle cx="365.48" cy="167.076" r="1.84701" fill="#43BAE5"/>
<path d="M175.144 42.0564C168.543 42.38 165.198 44.0768 161.137 49.5148C160.964 49.7474 160.808 49.9966 160.681 50.2573C158.919 53.8631 159.762 55.1325 163.238 56.0144C163.856 56.1714 164.506 56.1907 165.138 56.0976C171.867 55.1052 174.292 53.6345 176.916 51.3127C177.947 50.3999 178.583 49.1101 178.651 47.7344C178.795 44.8278 178.489 43.6025 177.876 42.8882C177.23 42.1366 176.134 42.0079 175.144 42.0564Z" fill="#0F1953"/>
<path d="M216.003 53.3914C208.016 52.6608 205.225 51.2253 204.63 47.2204C204.559 46.7447 204.581 46.2561 204.695 45.7887C205.229 43.5836 206.196 43.2438 208.585 44.2525C219.521 47.523 221.546 49.0798 220.526 51.2856C219.771 52.919 217.795 53.5553 216.003 53.3914Z" fill="#0F1953"/>
</svg>
