<?xml version="1.0" encoding="UTF-8"?>
<svg version="1.1" xmlns="http://www.w3.org/2000/svg" width="450" height="61">
<path d="M0 0 C1.42435616 -0.01467567 1.42435616 -0.01467567 2.87748718 -0.02964783 C6.03443991 -0.05967617 9.19135008 -0.08100715 12.34838867 -0.09985352 C13.4236701 -0.10642534 14.49895153 -0.11299717 15.60681725 -0.11976814 C21.29776061 -0.1523936 26.98868499 -0.17683723 32.6796875 -0.19628906 C37.39903895 -0.21411514 42.11779434 -0.24895211 46.83691406 -0.29882812 C52.52451002 -0.35887955 58.21155238 -0.38974442 63.8994503 -0.39946175 C66.07046631 -0.40804331 68.24146648 -0.42692728 70.41230202 -0.45620537 C73.44870671 -0.49495376 76.48293968 -0.49617607 79.51953125 -0.48828125 C80.41995148 -0.50828186 81.3203717 -0.52828247 82.24807739 -0.54888916 C84.62886939 -0.52103949 86.66002579 -0.42891927 88.95385742 0.20874023 C92.22956881 3.70031102 93.45341397 6.54118675 93.47143555 11.29272461 C93.48404419 12.25392212 93.49665283 13.21511963 93.50964355 14.20544434 C93.50154663 15.22746948 93.49344971 16.24949463 93.48510742 17.30249023 C93.49084778 18.89981995 93.49084778 18.89981995 93.4967041 20.52941895 C93.49941952 22.77523751 93.49208436 25.0210879 93.4753418 27.2668457 C93.45392811 30.69741568 93.47515733 34.12589137 93.50073242 37.55639648 C93.49808908 39.74259901 93.49296398 41.92880023 93.48510742 44.11499023 C93.49320435 45.13701538 93.50130127 46.15904053 93.50964355 47.21203613 C93.49703491 48.17323364 93.48442627 49.13443115 93.47143555 50.12475586 C93.46825317 50.9638147 93.4650708 51.80287354 93.46179199 52.6673584 C92.70984238 56.42963644 91.58294742 58.39375148 88.95385742 61.20874023 C85.86141892 62.09338121 82.85759341 62.00853815 79.65893555 61.95336914 C78.71868027 61.96067047 77.77842499 61.9679718 76.80967712 61.97549438 C73.70075281 61.99171054 70.59391214 61.96448715 67.48510742 61.93530273 C65.32564292 61.93426555 63.1661765 61.93530088 61.00671387 61.93832397 C56.48050756 61.93814451 51.9550136 61.91728352 47.42895508 61.88110352 C41.62460684 61.83572764 35.82129959 61.83464019 30.01682281 61.84813881 C25.55754326 61.85481902 21.09850144 61.84155733 16.63926697 61.82188034 C14.499031 61.81417707 12.35876859 61.81187962 10.21852112 61.81505203 C7.22809389 61.81579309 4.23900553 61.7905645 1.2487793 61.75805664 C0.36242294 61.76301147 -0.52393341 61.76796631 -1.43714905 61.77307129 C-7.39569396 61.66958896 -7.39569396 61.66958896 -10.5645752 59.42440796 C-12.93466996 55.87995731 -13.17008302 52.92594382 -13.20727539 48.73486328 C-13.22168671 47.41780647 -13.22168671 47.41780647 -13.23638916 46.07414246 C-13.24063904 45.13242691 -13.24488892 44.19071136 -13.24926758 43.22045898 C-13.25496765 42.24389847 -13.26066772 41.26733795 -13.26654053 40.26118469 C-13.27597908 38.19594401 -13.28251996 36.13068834 -13.28637695 34.06542969 C-13.2960747 30.91826881 -13.32710598 27.77176335 -13.35864258 24.62475586 C-13.36517393 22.6149941 -13.37042388 20.60522768 -13.37426758 18.59545898 C-13.38661438 17.65981613 -13.39896118 16.72417328 -13.41168213 15.76017761 C-13.37388862 4.58376126 -11.46318103 0.07373663 0 0 Z " fill="#033059" transform="translate(128.046142578125,-0.208740234375)"/>
<path d="M0 0 C1.59344074 -0.03561377 3.18782988 -0.03804389 4.78149414 -0.01446533 C5.65347443 -0.02497925 6.52545471 -0.03549316 7.42385864 -0.04632568 C10.30551869 -0.07272895 13.18496801 -0.05525406 16.06665039 -0.03497314 C18.06917749 -0.03901467 20.07170173 -0.04483759 22.07421875 -0.05236816 C26.27087432 -0.06121509 30.46676359 -0.04835363 34.66333008 -0.02032471 C40.04425546 0.01386186 45.4233855 -0.00582066 50.804245 -0.04175949 C54.93930605 -0.06343562 59.07394104 -0.05654291 63.20901489 -0.04099274 C65.1929648 -0.0369887 67.17695333 -0.04190758 69.16085815 -0.05587006 C71.93388375 -0.07110301 74.70399812 -0.04789851 77.47680664 -0.01446533 C78.70815842 -0.03268341 78.70815842 -0.03268341 79.96438599 -0.05126953 C82.25830078 -0 82.25830078 -0 86.12915039 0.76190186 C89.32658677 4.24869925 90.62990701 7.04700518 90.63085938 11.75408936 C90.64024033 12.69526611 90.64962128 13.63644287 90.6592865 14.60614014 C90.64805252 15.6062915 90.63681854 16.60644287 90.62524414 17.63690186 C90.62669937 18.67959229 90.6281546 19.72228271 90.62965393 20.79656982 C90.62799811 22.99532879 90.61647255 25.19409973 90.59570312 27.39276123 C90.56674711 30.75068597 90.57510212 34.10703087 90.58813477 37.46502686 C90.58189686 39.6056595 90.57350552 41.74628717 90.56274414 43.88690186 C90.56567978 44.88705322 90.56861542 45.88720459 90.57164001 46.91766357 C90.49973331 52.25320372 90.19874041 56.1844842 87.12915039 60.76190186 C83.89587816 62.37853797 80.34990023 61.9453291 76.7956543 61.97064209 C75.93371964 61.98042587 75.07178497 61.99020966 74.18373108 62.00028992 C71.32440748 62.03026522 68.46513063 62.05163291 65.60571289 62.07049561 C64.14310595 62.08035335 64.14310595 62.08035335 62.65095139 62.09041023 C57.49168091 62.12301018 52.33243119 62.14746178 47.1730957 62.16693115 C42.89707538 62.18476385 38.6217121 62.21961444 34.34594727 62.26947021 C29.18886602 62.32953707 24.03239535 62.36038797 18.87498093 62.37010384 C16.90770746 62.37868132 14.94045131 62.39755555 12.97337723 62.42684746 C10.2220006 62.46561872 7.4730189 62.46681607 4.72143555 62.45892334 C3.90674301 62.47892395 3.09205048 62.49892456 2.25267029 62.51953125 C-0.02450562 62.49015808 -0.02450562 62.49015808 -3.87084961 61.76190186 C-7.10035711 58.24725033 -8.37043828 55.42098504 -8.38842773 50.67791748 C-8.40103638 49.71671997 -8.41364502 48.75552246 -8.42663574 47.76519775 C-8.41853882 46.74317261 -8.41044189 45.72114746 -8.40209961 44.66815186 C-8.40592651 43.60326538 -8.40975342 42.53837891 -8.41369629 41.44122314 C-8.41641171 39.19540458 -8.40907655 36.94955419 -8.39233398 34.70379639 C-8.3709203 31.27322641 -8.39214952 27.84475072 -8.41772461 24.41424561 C-8.41508127 22.22804308 -8.40995617 20.04184186 -8.40209961 17.85565186 C-8.41019653 16.83362671 -8.41829346 15.81160156 -8.42663574 14.75860596 C-8.4140271 13.79740845 -8.40141846 12.83621094 -8.38842773 11.84588623 C-8.38524536 11.00682739 -8.38206299 10.16776855 -8.37878418 9.30328369 C-7.28939043 3.85264957 -5.55816987 1.0940182 0 0 Z " fill="#0D7DC1" transform="translate(246.870849609375,-0.76190185546875)"/>
<path d="M0 0 C0.83311203 -0.00584106 1.66622406 -0.01168213 2.52458191 -0.0177002 C5.27141445 -0.02809684 8.01497504 0.01169491 10.76147461 0.05322266 C12.67288149 0.05866665 14.58429766 0.06144628 16.49571228 0.06167603 C20.49825765 0.06940113 24.49970454 0.10035756 28.50195312 0.14941406 C33.63248235 0.21171953 38.76195944 0.23025561 43.89283085 0.2332058 C47.83827509 0.2379061 51.78349551 0.25869289 55.72884941 0.28508377 C57.62067279 0.29714495 59.51252065 0.30584739 61.40437508 0.31113815 C64.04734497 0.32234926 66.6893146 0.35348998 69.33203125 0.390625 C70.11395844 0.39083649 70.89588562 0.39104797 71.70150757 0.39126587 C74.82143609 0.45281005 77.2541193 0.67644872 80.08778381 2.02992249 C82.1655986 4.51797534 82.09650905 6.06939112 82.0871582 9.29174805 C82.09638809 10.96346825 82.09638809 10.96346825 82.10580444 12.66896057 C82.09143341 13.87213425 82.07706238 15.07530792 82.06225586 16.31494141 C82.06133942 17.54893173 82.06042297 18.78292206 82.05947876 20.05430603 C82.05188283 23.33358106 82.02586626 26.6120821 81.99255371 29.89117432 C81.96563579 33.2297055 81.97200213 36.56810236 81.97241211 39.90673828 C81.96258155 42.43864736 81.95092482 44.97055014 81.93725586 47.50244141 C81.93503021 48.70763931 81.93280457 49.91283722 81.93051147 51.15455627 C81.91775177 52.26588425 81.90499207 53.37721222 81.8918457 54.5222168 C81.88041031 55.99423302 81.88041031 55.99423302 81.8687439 57.49598694 C81.60131836 59.84228516 81.60131836 59.84228516 79.60131836 61.84228516 C76.79207295 62.06193681 74.07982495 62.15687211 71.26782227 62.16455078 C69.97492027 62.1794455 69.97492027 62.1794455 68.65589905 62.19464111 C65.79652751 62.22391833 62.93737783 62.23749327 60.07788086 62.24853516 C58.09491975 62.26003499 56.11195873 62.27155049 54.1289978 62.28308105 C49.96774252 62.30411048 45.80656464 62.31578967 41.64526367 62.32275391 C36.3092948 62.33372804 30.97434554 62.38178614 25.63869667 62.43869781 C21.54148355 62.47591981 17.44451683 62.48636 13.3471489 62.48942566 C11.37989092 62.49548658 9.41263769 62.51157053 7.4455452 62.53779602 C4.69410594 62.5718607 1.94516728 62.56817547 -0.80639648 62.55517578 C-1.62108902 62.57360535 -2.43578156 62.59203491 -3.27516174 62.61102295 C-5.55233765 62.57727051 -5.55233765 62.57727051 -9.39868164 61.84228516 C-12.58234155 58.36633879 -13.89660334 55.55571672 -13.93212891 50.8659668 C-13.94796524 49.92801773 -13.96380157 48.99006866 -13.9801178 48.0236969 C-13.97267799 46.52817543 -13.97267799 46.52817543 -13.96508789 45.00244141 C-13.97128647 43.96212265 -13.97748505 42.92180389 -13.98387146 41.84996033 C-13.99095797 39.65543552 -13.98781613 37.46085682 -13.97509766 35.26635742 C-13.96124011 31.91890946 -13.99531292 28.5742626 -14.03344727 25.22705078 C-14.03439862 23.08968031 -14.03253877 20.95230636 -14.02758789 18.81494141 C-14.0408461 17.81995132 -14.05410431 16.82496124 -14.06776428 15.79981995 C-14.05523117 14.85871872 -14.04269806 13.91761749 -14.02978516 12.94799805 C-14.02882339 12.12892471 -14.02786163 11.30985138 -14.02687073 10.46595764 C-12.13392247 2.55993642 -8.03464182 -0.21071715 0 0 Z " fill="#FBFBFB" transform="translate(368.398681640625,-0.84228515625)"/>
<path d="M0 0 C1.21644196 0.00135956 1.21644196 0.00135956 2.4574585 0.00274658 C3.31124588 -0.00397064 4.16503326 -0.01068787 5.04469299 -0.01760864 C7.87643194 -0.03665856 10.70793479 -0.04051627 13.53973389 -0.04266357 C15.5026713 -0.04908638 17.46560773 -0.05581434 19.42854309 -0.06283569 C23.54692811 -0.07482578 27.66522913 -0.07851471 31.78363037 -0.07733154 C37.06790653 -0.0771282 42.35164582 -0.10443893 47.63579464 -0.13887596 C51.69092801 -0.16108331 55.74593089 -0.16517099 59.80111885 -0.16411209 C61.74962783 -0.16647703 63.69813993 -0.17535047 65.64658928 -0.19077682 C68.36908747 -0.21031357 71.09041124 -0.20464783 73.81292725 -0.19256592 C74.62186432 -0.20380493 75.43080139 -0.21504395 76.26425171 -0.22662354 C81.66067011 -0.16558579 81.66067011 -0.16558579 84.19981384 1.99514771 C85.37182405 4.68836962 85.58045883 6.61203189 85.58807373 9.5491333 C85.59753021 10.59702026 85.60698669 11.64490723 85.61672974 12.72454834 C85.61065704 13.85066528 85.60458435 14.97678223 85.59832764 16.13702393 C85.60119781 17.29826782 85.60406799 18.45951172 85.60702515 19.65594482 C85.60906607 22.11041756 85.60353428 24.56490655 85.59100342 27.01934814 C85.5749511 30.77899502 85.59085213 34.53756679 85.61004639 38.29718018 C85.60806396 40.68129714 85.6042203 43.06541342 85.59832764 45.44952393 C85.60440033 46.57564087 85.61047302 47.70175781 85.61672974 48.86199951 C85.60254501 50.43382996 85.60254501 50.43382996 85.58807373 52.03741455 C85.58568695 52.95800659 85.58330017 53.87859863 85.58084106 54.8270874 C85.09558567 57.96851648 84.64188798 59.21520861 82.19989014 61.29327393 C79.27914588 61.68486549 76.73454089 61.81970538 73.81292725 61.77911377 C72.52961769 61.78480881 72.52961769 61.78480881 71.22038269 61.7906189 C68.38896165 61.79803597 65.5585639 61.77662776 62.72723389 61.75421143 C60.76333232 61.7518278 58.79942846 61.75092151 56.83552551 61.75143433 C52.71879818 61.74830444 48.60241866 61.73172334 44.48577881 61.70489502 C39.20043807 61.6708926 33.91547937 61.66326694 28.63004208 61.66478539 C24.57493928 61.66424241 20.51992055 61.65328736 16.46484566 61.6387825 C14.51553547 61.63240429 12.56621574 61.62847322 10.61689568 61.62699509 C7.89691704 61.62267418 5.17734932 61.60520018 2.4574585 61.58380127 C1.24101654 61.58516083 1.24101654 61.58516083 0 61.58654785 C-5.57115367 61.52223012 -5.57115367 61.52223012 -7.80010986 59.29327393 C-8.05407715 56.90228271 -8.05407715 56.90228271 -8.05889893 53.86553955 C-8.06520325 52.73096313 -8.07150757 51.59638672 -8.07800293 50.4274292 C-8.07395447 49.19722046 -8.06990601 47.96701172 -8.06573486 46.69952393 C-8.06764832 45.44192261 -8.06956177 44.18432129 -8.0715332 42.88861084 C-8.07289635 40.22534517 -8.07018993 37.56244463 -8.06085205 34.89923096 C-8.04945738 31.48255998 -8.05601734 28.0662032 -8.06799698 24.64954376 C-8.0769544 21.39535913 -8.07068614 18.14121265 -8.06573486 14.88702393 C-8.06978333 13.65681519 -8.07383179 12.42660645 -8.07800293 11.15911865 C-8.07169861 10.02454224 -8.06539429 8.88996582 -8.05889893 7.7210083 C-8.05730774 6.71888306 -8.05571655 5.71675781 -8.05407715 4.68426514 C-7.51624258 -0.37921272 -4.34607582 0.05017448 0 0 Z " fill="#FAFBFB" transform="translate(7.80010986328125,-0.29327392578125)"/>
<path d="M0 0 C0 0.66 0 1.32 0 2 C0.52207031 1.7834375 1.04414063 1.566875 1.58203125 1.34375 C9.05691893 -1.48387826 15.90912277 -2.04005353 23.6875 -0.0625 C28.44205361 2.89788244 32.15416717 6.12660179 35 11 C35.62670456 14.77480186 35.50905337 18.21745067 35 22 C34.34 22 33.68 22 33 22 C32.9071875 22.8353125 32.9071875 22.8353125 32.8125 23.6875 C31.07460764 28.63380902 26.5552535 31.7512853 22 34 C18.58984375 34.36328125 18.58984375 34.36328125 14.9375 34.3125 C13.72964844 34.30863281 12.52179688 34.30476563 11.27734375 34.30078125 C8.19477985 34.0178761 6.6363391 33.47324832 4 32 C0.51116436 32.34037421 -1.02819033 33.01879355 -4 35 C-10.22240431 35.88526682 -16.27289344 36.18014615 -21.5625 32.4375 C-26.91631581 27.55907587 -29.19433614 23.42271869 -29.75 16.125 C-29.55126234 10.04057022 -27.45236757 6.8798591 -23.13671875 2.71484375 C-16.86390711 -2.31946029 -7.55124608 -2.21574122 0 0 Z " fill="#F69F1C" transform="translate(165,14)"/>
<path d="M0 0 C3.77068832 -0.086985 7.54111932 -0.14038579 11.3125 -0.1875 C12.38435547 -0.21263672 13.45621094 -0.23777344 14.56054688 -0.26367188 C15.58857422 -0.27333984 16.61660156 -0.28300781 17.67578125 -0.29296875 C19.0975769 -0.31653442 19.0975769 -0.31653442 20.5480957 -0.34057617 C23.39771408 0.05524357 24.24976105 0.77824719 26 3 C26.33 2.01 26.66 1.02 27 0 C42.66666667 0 58.33333333 0 74 0 C72.27845212 3.76488042 70.00765886 6.15063897 67 9 C68.17366316 11.88080957 69.35092741 13.34257199 71.625 15.5625 C74 18 74 18 74 21 C71.9163691 20.85848172 69.83310062 20.71162064 67.75 20.5625 C66.58984375 20.48128906 65.4296875 20.40007813 64.234375 20.31640625 C61 20 61 20 58.640625 19.40234375 C58.09921875 19.26957031 57.5578125 19.13679688 57 19 C56.505 19.495 56.505 19.495 56 20 C54.51719533 20.09829379 53.0297595 20.1279844 51.54370117 20.12939453 C50.12168648 20.13412277 50.12168648 20.13412277 48.67094421 20.13894653 C47.12259636 20.13591019 47.12259636 20.13591019 45.54296875 20.1328125 C43.96120598 20.13424759 43.96120598 20.13424759 42.3474884 20.13571167 C40.1104832 20.13639382 37.87347604 20.13453713 35.63647461 20.13037109 C32.21268242 20.12503922 28.78902237 20.1303067 25.36523438 20.13671875 C23.19531221 20.13605766 21.02539013 20.13477587 18.85546875 20.1328125 C17.82930954 20.13483673 16.80315033 20.13686096 15.74589539 20.13894653 C14.78842911 20.13579437 13.83096283 20.13264221 12.84448242 20.12939453 C12.00366623 20.12859894 11.16285004 20.12780334 10.29655457 20.12698364 C8 20 8 20 5.75971985 19.42941284 C5.1790123 19.2877066 4.59830475 19.14600037 4 19 C3.67 19.33 3.34 19.66 3 20 C1.14712498 20.07226502 -0.70833878 20.0838122 -2.5625 20.0625 C-3.57441406 20.05347656 -4.58632812 20.04445313 -5.62890625 20.03515625 C-6.41136719 20.02355469 -7.19382813 20.01195313 -8 20 C-6.82593837 15.30375349 -5.27057812 11.26726036 -3 6.9921875 C-1.855009 4.71115075 -0.93658596 2.37317223 0 0 Z " fill="#CAE3F7" transform="translate(254,20)"/>
<path d="M0 0 C0 0.66 0 1.32 0 2 C1.32 2.33 2.64 2.66 4 3 C2.37660195 4.70884005 0.70680947 6.37446717 -1 8 C-1.66 8 -2.32 8 -3 8 C-3.66 12.62 -4.32 17.24 -5 22 C-4.34 22 -3.68 22 -3 22 C0 26.38461538 0 26.38461538 0 29 C0.99 29.33 1.98 29.66 3 30 C-2.8630572 34.78302035 -6.08037468 35.47325359 -13.66015625 35.40625 C-19.57142106 34.68721896 -22.54463897 31.74916491 -26.37109375 27.46484375 C-29.46668933 23.10530256 -29.81941131 18.25005384 -29.6484375 13.015625 C-28.48882856 7.62274486 -25.20698228 4.37635324 -21 1 C-15.07346787 -2.29251785 -6.43523648 -1.88827362 0 0 Z " fill="#EC021B" transform="translate(165,14)"/>
<path d="M0 0 C0.83311203 -0.00584106 1.66622406 -0.01168213 2.52458191 -0.0177002 C5.27141445 -0.02809684 8.01497504 0.01169491 10.76147461 0.05322266 C12.67288149 0.05866665 14.58429766 0.06144628 16.49571228 0.06167603 C20.49825765 0.06940113 24.49970454 0.10035756 28.50195312 0.14941406 C33.63248235 0.21171953 38.76195944 0.23025561 43.89283085 0.2332058 C47.83827509 0.2379061 51.78349551 0.25869289 55.72884941 0.28508377 C57.62067279 0.29714495 59.51252065 0.30584739 61.40437508 0.31113815 C64.04734497 0.32234926 66.6893146 0.35348998 69.33203125 0.390625 C70.11395844 0.39083649 70.89588562 0.39104797 71.70150757 0.39126587 C74.82143609 0.45281005 77.2541193 0.67644872 80.08778381 2.02992249 C82.1655986 4.51797534 82.09650905 6.06939112 82.0871582 9.29174805 C82.09638809 10.96346825 82.09638809 10.96346825 82.10580444 12.66896057 C82.09143341 13.87213425 82.07706238 15.07530792 82.06225586 16.31494141 C82.06133942 17.54893173 82.06042297 18.78292206 82.05947876 20.05430603 C82.05188283 23.33358106 82.02586626 26.6120821 81.99255371 29.89117432 C81.96563579 33.2297055 81.97200213 36.56810236 81.97241211 39.90673828 C81.96258155 42.43864736 81.95092482 44.97055014 81.93725586 47.50244141 C81.93503021 48.70763931 81.93280457 49.91283722 81.93051147 51.15455627 C81.91775177 52.26588425 81.90499207 53.37721222 81.8918457 54.5222168 C81.88041031 55.99423302 81.88041031 55.99423302 81.8687439 57.49598694 C81.60131836 59.84228516 81.60131836 59.84228516 79.60131836 61.84228516 C76.79207295 62.06193681 74.07982495 62.15687211 71.26782227 62.16455078 C69.97492027 62.1794455 69.97492027 62.1794455 68.65589905 62.19464111 C65.79652751 62.22391833 62.93737783 62.23749327 60.07788086 62.24853516 C58.09491975 62.26003499 56.11195873 62.27155049 54.1289978 62.28308105 C49.96774252 62.30411048 45.80656464 62.31578967 41.64526367 62.32275391 C36.3092948 62.33372804 30.97434554 62.38178614 25.63869667 62.43869781 C21.54148355 62.47591981 17.44451683 62.48636 13.3471489 62.48942566 C11.37989092 62.49548658 9.41263769 62.51157053 7.4455452 62.53779602 C4.69410594 62.5718607 1.94516728 62.56817547 -0.80639648 62.55517578 C-1.62108902 62.57360535 -2.43578156 62.59203491 -3.27516174 62.61102295 C-5.55233765 62.57727051 -5.55233765 62.57727051 -9.39868164 61.84228516 C-12.58234155 58.36633879 -13.89660334 55.55571672 -13.93212891 50.8659668 C-13.94796524 49.92801773 -13.96380157 48.99006866 -13.9801178 48.0236969 C-13.97267799 46.52817543 -13.97267799 46.52817543 -13.96508789 45.00244141 C-13.97128647 43.96212265 -13.97748505 42.92180389 -13.98387146 41.84996033 C-13.99095797 39.65543552 -13.98781613 37.46085682 -13.97509766 35.26635742 C-13.96124011 31.91890946 -13.99531292 28.5742626 -14.03344727 25.22705078 C-14.03439862 23.08968031 -14.03253877 20.95230636 -14.02758789 18.81494141 C-14.0408461 17.81995132 -14.05410431 16.82496124 -14.06776428 15.79981995 C-14.05523117 14.85871872 -14.04269806 13.91761749 -14.02978516 12.94799805 C-14.02882339 12.12892471 -14.02786163 11.30985138 -14.02687073 10.46595764 C-12.13392247 2.55993642 -8.03464182 -0.21071715 0 0 Z M-9.39868164 6.84228516 C-10.00272397 9.12820081 -10.00272397 9.12820081 -9.91625977 11.72509766 C-9.92886841 12.71622559 -9.94147705 13.70735352 -9.95446777 14.72851562 C-9.94637085 15.79730957 -9.93827393 16.86610352 -9.92993164 17.96728516 C-9.93375854 19.06572754 -9.93758545 20.16416992 -9.94152832 21.29589844 C-9.94425146 23.6193127 -9.93686233 25.94275741 -9.92016602 28.26611328 C-9.89876352 31.82865553 -9.91995563 35.38918087 -9.94555664 38.95166016 C-9.94291344 41.20687295 -9.93778862 43.4620845 -9.92993164 45.71728516 C-9.93802856 46.7860791 -9.94612549 47.85487305 -9.95446777 48.95605469 C-9.94185913 49.94718262 -9.92925049 50.93831055 -9.91625977 51.95947266 C-9.91307739 52.83200684 -9.90989502 53.70454102 -9.90661621 54.60351562 C-9.56245029 56.9360958 -9.56245029 56.9360958 -7.85546875 58.62220764 C-4.45374252 60.31155617 -1.28820779 60.26904151 2.42749023 60.24633789 C3.21168839 60.25320114 3.99588654 60.26006439 4.80384827 60.26713562 C7.39277311 60.28541838 9.98109289 60.28156454 12.57006836 60.27587891 C14.37081093 60.28043965 16.17155175 60.2857449 17.97229004 60.29176331 C21.7450264 60.30069703 25.5175511 60.29826792 29.2902832 60.28833008 C34.12605584 60.27683353 38.96109902 60.29706083 43.79677582 60.32624722 C47.51483808 60.34458777 51.23272478 60.34432117 54.95082092 60.3386097 C56.73382084 60.33845625 58.51683249 60.34451959 60.29978943 60.35690117 C62.79204177 60.37177116 65.28293678 60.36116502 67.77514648 60.34399414 C68.51189102 60.35366211 69.24863556 60.36333008 70.00770569 60.37329102 C73.35263658 60.32500653 75.29532559 60.05794992 78.05810547 58.11073303 C79.83540914 55.49818309 80.10690629 54.17925162 80.11889648 51.04541016 C80.13150513 50.09762695 80.14411377 49.14984375 80.15710449 48.17333984 C80.14900757 47.1565918 80.14091064 46.13984375 80.13256836 45.09228516 C80.13639526 44.04202148 80.14022217 42.99175781 80.14416504 41.90966797 C80.14688531 39.69058269 80.13951612 37.47146541 80.12280273 35.25244141 C80.10139581 31.8545792 80.12260161 28.45883154 80.14819336 25.06103516 C80.14555011 22.90478049 80.14042518 20.74852713 80.13256836 18.59228516 C80.14066528 17.57553711 80.14876221 16.55878906 80.15710449 15.51123047 C80.14449585 14.56344727 80.13188721 13.61566406 80.11889648 12.63916016 C80.11571411 11.80739258 80.11253174 10.975625 80.10925293 10.11865234 C79.3831804 6.86467479 78.32367012 5.76100817 75.60131836 3.84228516 C72.85750862 3.45261549 70.51629873 3.30460526 67.77514648 3.34057617 C66.99094833 3.33517319 66.20675018 3.3297702 65.39878845 3.32420349 C62.80966309 3.31170825 60.22164802 3.32821179 57.63256836 3.34619141 C55.83182721 3.34603644 54.03108571 3.34454778 52.23034668 3.34178162 C48.45753218 3.34039727 44.68509768 3.35296151 40.91235352 3.37573242 C36.07666108 3.40411723 31.24160006 3.40138024 26.4058609 3.38864231 C22.68779102 3.38168682 18.96986705 3.38947292 15.2518158 3.40189934 C13.46883199 3.40641511 11.68583252 3.40674954 9.90284729 3.40283394 C7.4107351 3.39992297 4.91949253 3.41642258 2.42749023 3.43823242 C1.6907457 3.43373077 0.95400116 3.42922913 0.19493103 3.42459106 C-3.8828607 3.48387645 -6.64682213 3.66832475 -9.39868164 6.84228516 Z " fill="#CCCDD4" transform="translate(368.398681640625,-0.84228515625)"/>
<path d="M0 0 C1.21644196 0.00135956 1.21644196 0.00135956 2.4574585 0.00274658 C3.31124588 -0.00397064 4.16503326 -0.01068787 5.04469299 -0.01760864 C7.87643194 -0.03665856 10.70793479 -0.04051627 13.53973389 -0.04266357 C15.5026713 -0.04908638 17.46560773 -0.05581434 19.42854309 -0.06283569 C23.54692811 -0.07482578 27.66522913 -0.07851471 31.78363037 -0.07733154 C37.06790653 -0.0771282 42.35164582 -0.10443893 47.63579464 -0.13887596 C51.69092801 -0.16108331 55.74593089 -0.16517099 59.80111885 -0.16411209 C61.74962783 -0.16647703 63.69813993 -0.17535047 65.64658928 -0.19077682 C68.36908747 -0.21031357 71.09041124 -0.20464783 73.81292725 -0.19256592 C74.62186432 -0.20380493 75.43080139 -0.21504395 76.26425171 -0.22662354 C81.66067011 -0.16558579 81.66067011 -0.16558579 84.19981384 1.99514771 C85.37182405 4.68836962 85.58045883 6.61203189 85.58807373 9.5491333 C85.59753021 10.59702026 85.60698669 11.64490723 85.61672974 12.72454834 C85.61065704 13.85066528 85.60458435 14.97678223 85.59832764 16.13702393 C85.60119781 17.29826782 85.60406799 18.45951172 85.60702515 19.65594482 C85.60906607 22.11041756 85.60353428 24.56490655 85.59100342 27.01934814 C85.5749511 30.77899502 85.59085213 34.53756679 85.61004639 38.29718018 C85.60806396 40.68129714 85.6042203 43.06541342 85.59832764 45.44952393 C85.60440033 46.57564087 85.61047302 47.70175781 85.61672974 48.86199951 C85.60254501 50.43382996 85.60254501 50.43382996 85.58807373 52.03741455 C85.58568695 52.95800659 85.58330017 53.87859863 85.58084106 54.8270874 C85.09558567 57.96851648 84.64188798 59.21520861 82.19989014 61.29327393 C79.27914588 61.68486549 76.73454089 61.81970538 73.81292725 61.77911377 C72.52961769 61.78480881 72.52961769 61.78480881 71.22038269 61.7906189 C68.38896165 61.79803597 65.5585639 61.77662776 62.72723389 61.75421143 C60.76333232 61.7518278 58.79942846 61.75092151 56.83552551 61.75143433 C52.71879818 61.74830444 48.60241866 61.73172334 44.48577881 61.70489502 C39.20043807 61.6708926 33.91547937 61.66326694 28.63004208 61.66478539 C24.57493928 61.66424241 20.51992055 61.65328736 16.46484566 61.6387825 C14.51553547 61.63240429 12.56621574 61.62847322 10.61689568 61.62699509 C7.89691704 61.62267418 5.17734932 61.60520018 2.4574585 61.58380127 C1.24101654 61.58516083 1.24101654 61.58516083 0 61.58654785 C-5.57115367 61.52223012 -5.57115367 61.52223012 -7.80010986 59.29327393 C-8.05407715 56.90228271 -8.05407715 56.90228271 -8.05889893 53.86553955 C-8.06520325 52.73096313 -8.07150757 51.59638672 -8.07800293 50.4274292 C-8.07395447 49.19722046 -8.06990601 47.96701172 -8.06573486 46.69952393 C-8.06764832 45.44192261 -8.06956177 44.18432129 -8.0715332 42.88861084 C-8.07289635 40.22534517 -8.07018993 37.56244463 -8.06085205 34.89923096 C-8.04945738 31.48255998 -8.05601734 28.0662032 -8.06799698 24.64954376 C-8.0769544 21.39535913 -8.07068614 18.14121265 -8.06573486 14.88702393 C-8.06978333 13.65681519 -8.07383179 12.42660645 -8.07800293 11.15911865 C-8.07169861 10.02454224 -8.06539429 8.88996582 -8.05889893 7.7210083 C-8.05730774 6.71888306 -8.05571655 5.71675781 -8.05407715 4.68426514 C-7.51624258 -0.37921272 -4.34607582 0.05017448 0 0 Z M-4.75689697 3.51235962 C-6.12509301 5.84806685 -6.18735219 7.45486969 -6.2041626 10.16021729 C-6.21684677 11.14811752 -6.22953094 12.13601776 -6.24259949 13.15385437 C-6.23966385 14.21951126 -6.23672821 15.28516815 -6.23370361 16.38311768 C-6.23894547 17.47918839 -6.24418732 18.57525909 -6.24958801 19.70454407 C-6.25601468 22.02374423 -6.25466294 24.34297695 -6.24615479 26.66217041 C-6.23765093 30.2136231 -6.2663894 33.76346486 -6.29815674 37.3147583 C-6.29976893 39.56671094 -6.29919088 41.81866644 -6.29620361 44.07061768 C-6.30743759 45.13425034 -6.31867157 46.197883 -6.33024597 47.29374695 C-6.32086502 48.28479935 -6.31148407 49.27585175 -6.30181885 50.29693604 C-6.30165268 51.1672496 -6.30148651 52.03756317 -6.30131531 52.93424988 C-5.59680855 56.25015236 -4.57650754 57.35329544 -1.80010986 59.29327393 C0.93726595 59.66754326 3.26575272 59.80092625 5.9977417 59.74737549 C7.16904633 59.74825165 7.16904633 59.74825165 8.36401367 59.74914551 C10.93996949 59.74636315 13.51476198 59.71526528 16.09051514 59.68389893 C17.87841154 59.67643704 19.66631613 59.67074386 21.45422363 59.66674805 C26.15621588 59.6514875 30.85771259 59.61220216 35.55950928 59.56793213 C40.35883887 59.52698844 45.15824867 59.50873897 49.95770264 59.48858643 C59.37198266 59.44570824 68.78589516 59.37745186 78.19989014 59.29327393 C78.85989014 57.97327393 79.51989014 56.65327393 80.19989014 55.29327393 C80.85989014 55.29327393 81.51989014 55.29327393 82.19989014 55.29327393 C82.19989014 38.46327393 82.19989014 21.63327393 82.19989014 4.29327393 C77.94145692 2.16405732 74.96262964 2.00316439 70.35784912 2.01861572 C69.57204468 2.01350479 68.78624023 2.00839386 67.97662354 2.00312805 C65.38299923 1.98924411 62.7896409 1.99018749 60.19598389 1.99249268 C58.39284669 1.98860592 56.58971041 1.98427129 54.78657532 1.97950745 C51.00968454 1.97204844 47.23288726 1.97233481 43.45599365 1.9776001 C38.61128143 1.98340325 33.76695045 1.9664419 28.92230129 1.94325542 C25.20001481 1.92854154 21.47782074 1.92764302 17.75551033 1.93076515 C15.96889552 1.93025105 14.18227566 1.92499671 12.39568901 1.91495323 C9.90105054 1.90264739 7.40716264 1.90934412 4.91253662 1.92095947 C4.17219681 1.91331573 3.43185699 1.905672 2.66908264 1.89779663 C-0.18769688 1.92726956 -2.29689333 1.97976814 -4.75689697 3.51235962 Z " fill="#CDCFD2" transform="translate(7.80010986328125,-0.29327392578125)"/>
<path d="M0 0 C3.77068832 -0.086985 7.54111932 -0.14038579 11.3125 -0.1875 C12.38435547 -0.21263672 13.45621094 -0.23777344 14.56054688 -0.26367188 C15.58857422 -0.27333984 16.61660156 -0.28300781 17.67578125 -0.29296875 C19.0975769 -0.31653442 19.0975769 -0.31653442 20.5480957 -0.34057617 C23.39771408 0.05524357 24.24976105 0.77824719 26 3 C26.33 2.01 26.66 1.02 27 0 C36.9 0 46.8 0 57 0 C57.495 0.99 57.495 0.99 58 2 C51.73 2.33 45.46 2.66 39 3 C38.67 7.95 38.34 12.9 38 18 C41.96 18 45.92 18 50 18 C50 18.33 50 18.66 50 19 C36.47 19 22.94 19 9 19 C9 18.67 9 18.34 9 18 C12.96 17.505 12.96 17.505 17 17 C17.33 14.03 17.66 11.06 18 8 C18.66 8 19.32 8 20 8 C20.99 10.64 21.98 13.28 23 16 C24.32 16 25.64 16 27 16 C27.66 13.36 28.32 10.72 29 8 C29.99 8 30.98 8 32 8 C32 10.97 32 13.94 32 17 C32.99 17 33.98 17 35 17 C35 12.38 35 7.76 35 3 C33.02 3 31.04 3 29 3 C28.814375 3.86625 28.814375 3.86625 28.625 4.75 C27.99351176 7.02335767 27.11141809 8.9253529 26 11 C25.01 11 24.02 11 23 11 C22.62875 9.865625 22.2575 8.73125 21.875 7.5625 C21.13362127 5.6185869 21.13362127 5.6185869 20 4 C16.91630113 2.94250443 16.91630113 2.94250443 14 3 C14 6.3 14 9.6 14 13 C13.34 13 12.68 13 12 13 C10.68 10.03 9.36 7.06 8 4 C6.35 4 4.7 4 3 4 C1.02 8.29 -0.96 12.58 -3 17 C-1.35 17 0.3 17 2 17 C2 16.34 2 15.68 2 15 C3.65 15 5.3 15 7 15 C7 15.66 7 16.32 7 17 C5.68 17 4.36 17 3 17 C3 17.99 3 18.98 3 20 C-0.63 20 -4.26 20 -8 20 C-6.82593837 15.30375349 -5.27057812 11.26726036 -3 6.9921875 C-1.855009 4.71115075 -0.93658596 2.37317223 0 0 Z " fill="#D4E8F8" transform="translate(254,20)"/>
<path d="M0 0 C6.93 0.495 6.93 0.495 14 1 C13.28571429 15.85714286 13.28571429 15.85714286 10 23 C7.69 23 5.38 23 3 23 C3.33 19.04 3.66 15.08 4 11 C1.85200113 13.8639985 0.57958644 15.61245262 -0.6875 18.75 C-1.120625 19.8225 -1.55375 20.895 -2 22 C-4.31 22 -6.62 22 -9 22 C-9.84378975 19.94175571 -10.67463622 17.87820214 -11.5 15.8125 C-11.9640625 14.66394531 -12.428125 13.51539063 -12.90625 12.33203125 C-13.90805652 9.28009923 -14.23870804 7.16884928 -14 4 C-11.1248055 5.28888029 -8.9928436 6.53266983 -7 9 C-6.64830932 10.32860925 -6.31229724 11.66158328 -6 13 C-5.34 13.33 -4.68 13.66 -4 14 C-3.81824219 13.11248047 -3.81824219 13.11248047 -3.6328125 12.20703125 C-3.46523438 11.41683594 -3.29765625 10.62664063 -3.125 9.8125 C-2.96257813 9.03519531 -2.80015625 8.25789063 -2.6328125 7.45703125 C-2 5 -2 5 0 0 Z " fill="#B6CDE6" transform="translate(31,19)"/>
<path d="M0 0 C2.390625 -0.1015625 2.390625 -0.1015625 5 0 C8.11081018 2.88860945 8.53256152 5.88654141 9 10 C9.66 10 10.32 10 11 10 C11 6.7 11 3.4 11 0 C13.8125 -0.25 13.8125 -0.25 17 0 C18.875 1.75 18.875 1.75 20 4 C20 5.32 20 6.64 20 8 C20.99 8 21.98 8 23 8 C24.07525194 5.34771188 25.09456151 2.71631546 26 0 C27.98 0 29.96 0 32 0 C32 4.62 32 9.24 32 14 C31.01 14 30.02 14 29 14 C29 11.03 29 8.06 29 5 C28.01 5 27.02 5 26 5 C25.67 7.64 25.34 10.28 25 13 C23.35 13.33 21.7 13.66 20 14 C17.70620251 10.55930376 17 9.27709699 17 5 C16.34 5 15.68 5 15 5 C15 7.97 15 10.94 15 14 C11.625 14.125 11.625 14.125 8 14 C7.34 13.34 6.68 12.68 6 12 C3.34462628 11.43479997 0.70855287 11.26211802 -2 11 C-2.33 11.99 -2.66 12.98 -3 14 C-3.99 14 -4.98 14 -6 14 C-5.31113213 10.61108678 -4.01283514 7.81988387 -2.4375 4.75 C-1.75494141 3.41195313 -1.75494141 3.41195313 -1.05859375 2.046875 C-0.70925781 1.37140625 -0.35992187 0.6959375 0 0 Z " fill="#0861AF" transform="translate(257,23)"/>
<path d="M0 0 C5.61 0 11.22 0 17 0 C17.66 1.32 18.32 2.64 19 4 C19.7425 3.525625 20.485 3.05125 21.25 2.5625 C23.61050015 1.22130673 25.36648477 0.487688 28 0 C26.50163895 3.11198065 24.80066242 6.0534615 23 9 C23.639375 9.268125 24.27875 9.53625 24.9375 9.8125 C27 11 27 11 28 14 C24.9168649 12.80100302 21.93720508 11.52299523 19 10 C19 10.66 19 11.32 19 12 C15.20836973 14.52775351 12.19125969 14.22443035 7.8125 14.125 C7.06291016 14.11597656 6.31332031 14.10695313 5.54101562 14.09765625 C3.69387346 14.07412578 1.84689588 14.03825561 0 14 C0 9.38 0 4.76 0 0 Z " fill="#1F69B3" transform="translate(292,23)"/>
<path d="M0 0 C0 0.66 0 1.32 0 2 C0.99 2 1.98 2 3 2 C6.47611242 7.97456822 7.93597917 12.43710155 6.5 19.4375 C6.335 19.953125 6.17 20.46875 6 21 C5.34 21 4.68 21 4 21 C4 21.66 4 22.32 4 23 C3.34 23 2.68 23 2 23 C1.67 23.99 1.34 24.98 1 26 C0.01 26.33 -0.98 26.66 -2 27 C-4.79872437 24.47211993 -6.45773019 22.79588866 -7 19 C-7.66 19 -8.32 19 -9 19 C-9.05437607 17.41705218 -9.09296271 15.83355744 -9.125 14.25 C-9.14820313 13.36828125 -9.17140625 12.4865625 -9.1953125 11.578125 C-8.83761577 6.85652819 -5.30210391 0 0 0 Z " fill="#FD5F04" transform="translate(169,17)"/>
<path d="M0 0 C0.9075 0.103125 1.815 0.20625 2.75 0.3125 C3.39881448 2.85343855 4.04412899 5.39518273 4.6875 7.9375 C4.86990234 8.65035156 5.05230469 9.36320312 5.24023438 10.09765625 C6.26316799 14.15219313 7.12957367 18.17197059 7.75 22.3125 C5.77 22.3125 3.79 22.3125 1.75 22.3125 C1.42 21.3225 1.09 20.3325 0.75 19.3125 C-1.23 18.9825 -3.21 18.6525 -5.25 18.3125 C-5.58 19.6325 -5.91 20.9525 -6.25 22.3125 C-8.23 22.3125 -10.21 22.3125 -12.25 22.3125 C-11.40142537 18.80677247 -10.44266571 15.33901727 -9.4375 11.875 C-9.12167969 10.76253906 -8.80585937 9.65007813 -8.48046875 8.50390625 C-6.64940902 3.75477673 -5.3646177 0.51582863 0 0 Z " fill="#3B66A4" transform="translate(73.25,19.6875)"/>
<path d="M0 0 C3.63 0 7.26 0 11 0 C11.33 1.32 11.66 2.64 12 4 C12.66 4 13.32 4 14 4 C14.33 2.68 14.66 1.36 15 0 C17.97 0 20.94 0 24 0 C23.67 3.3 23.34 6.6 23 10 C21.68 10 20.36 10 19 10 C19 8.02 19 6.04 19 4 C16.7522025 6.05233685 15.9977758 7.00667261 15 10 C13.68 9.67 12.36 9.34 11 9 C11 8.01 11 7.02 11 6 C10.34 6 9.68 6 9 6 C8.34 7.65 7.68 9.3 7 11 C4.69 11 2.38 11 0 11 C-0.33 10.01 -0.66 9.02 -1 8 C-1.66 8 -2.32 8 -3 8 C-3 6.35 -3 4.7 -3 3 C-2.34 3 -1.68 3 -1 3 C-0.67 2.01 -0.34 1.02 0 0 Z " fill="#E14B1D" transform="translate(401,27)"/>
<path d="M0 0 C0.66 0.66 1.32 1.32 2 2 C1.625 4.125 1.625 4.125 1 6 C-1.31 6 -3.62 6 -6 6 C-6 6.66 -6 7.32 -6 8 C-4.44144019 9.35712166 -4.44144019 9.35712166 -2.5 10.625 C-1.8503125 11.07101563 -1.200625 11.51703125 -0.53125 11.9765625 C-0.0259375 12.31429688 0.479375 12.65203125 1 13 C0.74919159 16.67852334 0.38558753 18.55599012 -2.0625 21.375 C-6.01713014 23.56266774 -8.52767342 23.30320858 -13 23 C-13.33 21.35 -13.66 19.7 -14 18 C-11.36 18 -8.72 18 -6 18 C-5.67 17.01 -5.34 16.02 -5 15 C-5.763125 14.731875 -6.52625 14.46375 -7.3125 14.1875 C-9.94860118 13.02271111 -11.35331505 12.34002598 -13 10 C-13.4375 7.5625 -13.4375 7.5625 -13 5 C-9.26210839 0.35985869 -5.82241608 -0.37164358 0 0 Z " fill="#284B95" transform="translate(60,19)"/>
<path d="M0 0 C1.65 0 3.3 0 5 0 C5 1.32 5 2.64 5 4 C4.34 4 3.68 4 3 4 C2.83564453 4.96099609 2.83564453 4.96099609 2.66796875 5.94140625 C1.67539672 11.3561691 0.37541347 16.03322639 -2 21 C-4.31 21 -6.62 21 -9 21 C-9.84378975 18.94175571 -10.67463622 16.87820214 -11.5 14.8125 C-11.9640625 13.66394531 -12.428125 12.51539063 -12.90625 11.33203125 C-13.90805652 8.28009923 -14.23870804 6.16884928 -14 3 C-11.1248055 4.28888029 -8.9928436 5.53266983 -7 8 C-6.64830932 9.32860925 -6.31229724 10.66158328 -6 12 C-5.34 12.33 -4.68 12.66 -4 13 C-3.87882812 12.39671875 -3.75765625 11.7934375 -3.6328125 11.171875 C-3.46523438 10.37265625 -3.29765625 9.5734375 -3.125 8.75 C-2.96257813 7.96109375 -2.80015625 7.1721875 -2.6328125 6.359375 C-2.00849925 4.03168856 -1.15161458 2.10968048 0 0 Z " fill="#5B749B" transform="translate(31,20)"/>
<path d="M0 0 C1.98 0 3.96 0 6 0 C6 4.62 6 9.24 6 14 C5.01 14 4.02 14 3 14 C3 11.03 3 8.06 3 5 C2.01 5 1.02 5 0 5 C-0.33 7.64 -0.66 10.28 -1 13 C-2.65 13.33 -4.3 13.66 -6 14 C-7.92910232 10.9805355 -9.1372809 8.45087638 -10 5 C-10.66 4.67 -11.32 4.34 -12 4 C-12 6.97 -12 9.94 -12 13 C-12.66 13 -13.32 13 -14 13 C-14 9.04 -14 5.08 -14 1 C-12.02 1 -10.04 1 -8 1 C-6 4 -6 4 -6 8 C-5.01 8 -4.02 8 -3 8 C-1.92474806 5.34771188 -0.90543849 2.71631546 0 0 Z " fill="#2B75B6" transform="translate(283,23)"/>
<path d="M0 0 C1.9375 0.375 1.9375 0.375 4 1 C4.495 1.99 4.495 1.99 5 3 C3.68 3 2.36 3 1 3 C1.66 3.66 2.32 4.32 3 5 C-0.0595421 6.77116942 -2.25987702 7.24897442 -5.78100586 7.24291992 C-7.19783913 7.24753487 -7.19783913 7.24753487 -8.64329529 7.25224304 C-9.65690628 7.24505753 -10.67051727 7.23787201 -11.71484375 7.23046875 C-13.28668175 7.22978142 -13.28668175 7.22978142 -14.89027405 7.2290802 C-17.10516493 7.22606085 -19.32005374 7.21818406 -21.53491211 7.20581055 C-24.92113797 7.18758805 -28.30708966 7.18530073 -31.69335938 7.18554688 C-33.84635653 7.18063005 -35.99935183 7.17480102 -38.15234375 7.16796875 C-39.66972389 7.16629951 -39.66972389 7.16629951 -41.21775818 7.16459656 C-42.16546585 7.15821671 -43.11317352 7.15183685 -44.08959961 7.14526367 C-44.91914658 7.14145187 -45.74869354 7.13764008 -46.6033783 7.13371277 C-49.14662457 6.99181949 -51.51700027 6.5558145 -54 6 C-54 5.34 -54 4.68 -54 4 C-52.68 4 -51.36 4 -50 4 C-50 3.34 -50 2.68 -50 2 C-51.65 2 -53.3 2 -55 2 C-55 2.66 -55 3.32 -55 4 C-55.66 3.67 -56.32 3.34 -57 3 C-56.67 2.34 -56.34 1.68 -56 1 C-49.9453125 0.8046875 -49.9453125 0.8046875 -48 1 C-47.34 1.66 -46.68 2.32 -46 3 C-44.01178687 3.39764263 -42.01055661 3.73775349 -40 4 C-40 4.33 -40 4.66 -40 5 C-33.07 5 -26.14 5 -19 5 C-19 4.67 -19 4.34 -19 4 C-17.87980469 3.93941406 -16.75960937 3.87882812 -15.60546875 3.81640625 C-14.13280016 3.73198576 -12.66014456 3.64733851 -11.1875 3.5625 C-10.08051758 3.50352539 -10.08051758 3.50352539 -8.95117188 3.44335938 C-5.76928658 3.25618965 -3.03837622 3.01279207 0 2 C0 1.34 0 0.68 0 0 Z " fill="#DAEEFB" transform="translate(311,33)"/>
<path d="M0 0 C0 0.66 0 1.32 0 2 C1.32 2.33 2.64 2.66 4 3 C2.35 3 0.7 3 -1 3 C-1 2.34 -1 1.68 -1 1 C-3.54405638 1.06042889 -6.08256731 1.14759028 -8.625 1.25 C-9.33785156 1.26417969 -10.05070312 1.27835938 -10.78515625 1.29296875 C-15.84944006 1.52527535 -19.08003892 2.51284219 -23 6 C-23 7.32 -23 8.64 -23 10 C-23.99 10 -24.98 10 -26 10 C-26 14.95 -26 19.9 -26 25 C-25.34 25 -24.68 25 -24 25 C-23.67 26.65 -23.34 28.3 -23 30 C-27.55308638 25.75045271 -29.31350711 22.58334375 -29.625 16.3125 C-29.55149801 11.30823974 -28.61741839 8.69288578 -25.375 4.875 C-18.40473931 -1.85197062 -9.21515495 -2.70397739 0 0 Z " fill="#C6132D" transform="translate(165,14)"/>
<path d="M0 0 C1.98 0 3.96 0 6 0 C7.8849413 7.00629124 9.39700836 13.76410027 10 21 C8.68 21 7.36 21 6 21 C6 19.68 6 18.36 6 17 C3.03 17 0.06 17 -3 17 C-1 15 -1 15 2.125 14.875 C3.07375 14.91625 4.0225 14.9575 5 15 C4.67 12.03 4.34 9.06 4 6 C3.01 6 2.02 6 1 6 C0.67 4.02 0.34 2.04 0 0 Z " fill="#0D3A8C" transform="translate(70,20)"/>
<path d="M0 0 C0.99 0.33 1.98 0.66 3 1 C3.268125 1.763125 3.53625 2.52625 3.8125 3.3125 C5.40185514 6.90946163 7.67153689 8.04633687 11 10 C10.67 11.32 10.34 12.64 10 14 C4.25 14.125 4.25 14.125 2 13 C2.33 14.32 2.66 15.64 3 17 C6.3 17 9.6 17 13 17 C12.67 17.66 12.34 18.32 12 19 C8.37 19 4.74 19 1 19 C-0.85001258 12.25289531 -1.06659074 6.90401302 0 0 Z " fill="#EDF5FA" transform="translate(44,24)"/>
<path d="M0 0 C2.4375 0.6875 2.4375 0.6875 5 2 C6.0625 4.3125 6.0625 4.3125 6 7 C4.22336478 9.69558448 2.90715555 11.54642223 0 13 C-2.6723621 13.13415472 -5.32250488 13.04318541 -8 13 C-8.33 11.35 -8.66 9.7 -9 8 C-6.36 8 -3.72 8 -1 8 C-0.67 7.01 -0.34 6.02 0 5 C-2.475 4.01 -2.475 4.01 -5 3 C-5 2.67 -5 2.34 -5 2 C-3.35 2 -1.7 2 0 2 C0 1.34 0 0.68 0 0 Z " fill="#26559B" transform="translate(55,29)"/>
<path d="M0 0 C5.41538462 -0.36923077 5.41538462 -0.36923077 8.375 1.5 C8.91125 1.995 9.4475 2.49 10 3 C10 2.34 10 1.68 10 1 C10.66 1 11.32 1 12 1 C12 3.64 12 6.28 12 9 C6.06 9.495 6.06 9.495 0 10 C0 6.7 0 3.4 0 0 Z " fill="#605F5D" transform="translate(368,27)"/>
<path d="M0 0 C2.97 0 5.94 0 9 0 C8.67 3.3 8.34 6.6 8 10 C6.68 10 5.36 10 4 10 C4 8.02 4 6.04 4 4 C1.7522025 6.05233685 0.9977758 7.00667261 0 10 C-1.875 9.75 -1.875 9.75 -4 9 C-6.02755186 6.06004981 -6 4.72295997 -6 1 C-5.01 1 -4.02 1 -3 1 C-3 1.99 -3 2.98 -3 4 C-2.34 4 -1.68 4 -1 4 C-0.67 2.68 -0.34 1.36 0 0 Z " fill="#7E7F81" transform="translate(416,27)"/>
<path d="M0 0 C1.32 0.33 2.64 0.66 4 1 C3.67 1.99 3.34 2.98 3 4 C3.99 4.33 4.98 4.66 6 5 C6.309375 4.360625 6.61875 3.72125 6.9375 3.0625 C8 1 8 1 9 0 C10.66617115 -0.04063832 12.33388095 -0.042721 14 0 C14 0.66 14 1.32 14 2 C12.68 2 11.36 2 10 2 C10 3.65 10 5.3 10 7 C11.32 7.33 12.64 7.66 14 8 C14 8.99 14 9.98 14 11 C10.37471432 11.20140476 8.13498292 10.85776765 5 9 C4.34 9.66 3.68 10.32 3 11 C1.68 11 0.36 11 -1 11 C-1 10.34 -1 9.68 -1 9 C-0.01 9 0.98 9 2 9 C2 8.01 2 7.02 2 6 C0.68 5.34 -0.64 4.68 -2 4 C-1.34 2.68 -0.68 1.36 0 0 Z " fill="#545553" transform="translate(383,27)"/>
<path d="M0 0 C2.65822762 2.65822762 2.35980571 4.1060254 2.4375 7.8125 C2.36650871 12.05169436 2.3263575 13.5430995 -0.1875 17.0625 C-1.115625 17.701875 -2.04375 18.34125 -3 19 C-3.7321875 19.53109375 -4.464375 20.0621875 -5.21875 20.609375 C-8.76884166 22.38442083 -11.36554742 22.29816222 -15.3125 22.1875 C-17.19388672 22.14689453 -17.19388672 22.14689453 -19.11328125 22.10546875 C-20.06589844 22.07066406 -21.01851562 22.03585938 -22 22 C-21.505 20.515 -21.505 20.515 -21 19 C-20.67 19.33 -20.34 19.66 -20 20 C-15.98342857 20.22918242 -15.98342857 20.22918242 -12 20 C-11.34 19.34 -10.68 18.68 -10 18 C-8.01178687 17.60235737 -6.01055661 17.26224651 -4 17 C-4 16.34 -4 15.68 -4 15 C-3.34 15 -2.68 15 -2 15 C-1.34 10.05 -0.68 5.1 0 0 Z " fill="#F9AE15" transform="translate(196,25)"/>
<path d="M0 0 C0.99 0 1.98 0 3 0 C3.125 6.75 3.125 6.75 2 9 C1.7724985 10.87056791 1.59037189 12.74685958 1.4375 14.625 C1.31181641 16.12933594 1.31181641 16.12933594 1.18359375 17.6640625 C1.12300781 18.43492188 1.06242187 19.20578125 1 20 C-0.65 20 -2.3 20 -4 20 C-3.86722656 19.21496094 -3.73445313 18.42992188 -3.59765625 17.62109375 C-2.43103917 10.72992777 -2.43103917 10.72992777 -1.4375 3.8125 C-1 1 -1 1 0 0 Z " fill="#0D3487" transform="translate(40,21)"/>
<path d="M0 0 C0 0.66 0 1.32 0 2 C0.66 2 1.32 2 2 2 C1.25 6.75 1.25 6.75 -1 9 C-3.3828125 8.9765625 -3.3828125 8.9765625 -6.125 8.625 C-7.03507812 8.51414062 -7.94515625 8.40328125 -8.8828125 8.2890625 C-9.58148438 8.19367187 -10.28015625 8.09828125 -11 8 C-11 7.01 -11 6.02 -11 5 C-8.36 5 -5.72 5 -3 5 C-3 4.01 -3 3.02 -3 2 C-5.64 2 -8.28 2 -11 2 C-11 1.34 -11 0.68 -11 0 C-3.57142857 -1.28571429 -3.57142857 -1.28571429 0 0 Z " fill="#DEF0FC" transform="translate(307,26)"/>
<path d="M0 0 C8.91 0 17.82 0 27 0 C27 0.33 27 0.66 27 1 C18.585 1.495 18.585 1.495 10 2 C9.67 6.95 9.34 11.9 9 17 C12.96 17 16.92 17 21 17 C21 17.33 21 17.66 21 18 C15.72 18 10.44 18 5 18 C5.66 17.67 6.32 17.34 7 17 C6.67 11.72 6.34 6.44 6 1 C4.02 1 2.04 1 0 1 C0 0.67 0 0.34 0 0 Z " fill="#F0F9FD" transform="translate(283,21)"/>
<path d="M0 0 C0.66 0.33 1.32 0.66 2 1 C1.05706821 3.35732948 0.49011366 4.71538243 -1.7421875 6.01171875 C-8.20549278 8.05961584 -16.86091108 10.73663266 -23.35546875 8.01171875 C-23.89816406 7.67785156 -24.44085938 7.34398437 -25 7 C-25 6.34 -25 5.68 -25 5 C-26.98 5.33 -28.96 5.66 -31 6 C-29.875 4.4375 -29.875 4.4375 -28 3 C-22.56521739 3.43478261 -22.56521739 3.43478261 -21 5 C-11.7098928 5.99021744 -11.7098928 5.99021744 -3.1875 3.0625 C-1.5786601 1.54679024 -1.5786601 1.54679024 0 0 Z " fill="#342F4D" transform="translate(194,42)"/>
<path d="M0 0 C1.98 0 3.96 0 6 0 C8 3 8 3 8.5 5.625 C8.665 6.40875 8.83 7.1925 9 8 C9.66 8.33 10.32 8.66 11 9 C11 10.32 11 11.64 11 13 C9.1015625 12.75 9.1015625 12.75 7 12 C6.0234375 10.1875 6.0234375 10.1875 5.375 8 C4.75580781 5.8567034 4.75580781 5.8567034 4 4 C3.34 3.67 2.68 3.34 2 3 C2 5.97 2 8.94 2 12 C1.34 12 0.68 12 0 12 C0 8.04 0 4.08 0 0 Z " fill="#1F71B6" transform="translate(269,24)"/>
<path d="M0 0 C5.61 0 11.22 0 17 0 C17.66 1.32 18.32 2.64 19 4 C20.32 3.67 21.64 3.34 23 3 C23 3.66 23 4.32 23 5 C21.68 5 20.36 5 19 5 C18.67 6.32 18.34 7.64 18 9 C17.67 7.68 17.34 6.36 17 5 C16.34 5 15.68 5 15 5 C14.67 4.34 14.34 3.68 14 3 C12.96939453 3.03480469 12.96939453 3.03480469 11.91796875 3.0703125 C10.56638672 3.09738281 10.56638672 3.09738281 9.1875 3.125 C8.29417969 3.14820313 7.40085937 3.17140625 6.48046875 3.1953125 C4 3 4 3 1 1 C1 5.29 1 9.58 1 14 C0.67 14 0.34 14 0 14 C0 9.38 0 4.76 0 0 Z " fill="#5595C9" transform="translate(292,23)"/>
<path d="M0 0 C1.67542976 0.28604898 3.34385343 0.61781233 5 1 C5.93423645 4.01031744 6.04449911 4.86650268 5 8 C5.66 8 6.32 8 7 8 C7 8.99 7 9.98 7 11 C4.36 10.67 1.72 10.34 -1 10 C-1.02689216 8.52093108 -1.04634621 7.04172517 -1.0625 5.5625 C-1.07410156 4.73878906 -1.08570313 3.91507813 -1.09765625 3.06640625 C-1 1 -1 1 0 0 Z " fill="#737474" transform="translate(429,27)"/>
<path d="M0 0 C0.66 0 1.32 0 2 0 C1.47731534 2.76276177 0.89130413 5.3260876 0 8 C1.65 8 3.3 8 5 8 C5 7.34 5 6.68 5 6 C6.65 6 8.3 6 10 6 C10 6.66 10 7.32 10 8 C8.68 8 7.36 8 6 8 C6 8.99 6 9.98 6 11 C2.37 11 -1.26 11 -5 11 C-3.04225352 3.16901408 -3.04225352 3.16901408 0 0 Z " fill="#E1F2FB" transform="translate(251,29)"/>
<path d="M0 0 C6.27 0 12.54 0 19 0 C19 0.33 19 0.66 19 1 C17.35 1.33 15.7 1.66 14 2 C13.67 5.3 13.34 8.6 13 12 C12.34 12 11.68 12 11 12 C10.79246094 11.36191406 10.58492188 10.72382813 10.37109375 10.06640625 C9.41957126 7.51441497 8.49377424 5.2815572 7 3 C3.37823416 1.77732292 3.37823416 1.77732292 0 2 C0 1.34 0 0.68 0 0 Z " fill="#ECF6FD" transform="translate(255,21)"/>
<path d="M0 0 C1.65 0 3.3 0 5 0 C5 1.32 5 2.64 5 4 C4.34 4 3.68 4 3 4 C2.896875 4.886875 2.79375 5.77375 2.6875 6.6875 C1.98284093 10.0826755 1.0445434 12.21942098 -1 15 C-1.66 15 -2.32 15 -3 15 C-2.88529863 13.24929483 -2.75780972 11.49942464 -2.625 9.75 C-2.55539063 8.77546875 -2.48578125 7.8009375 -2.4140625 6.796875 C-2.01534751 4.10366811 -1.36492937 2.33036721 0 0 Z " fill="#153D8D" transform="translate(31,20)"/>
<path d="M0 0 C1.32 0.33 2.64 0.66 4 1 C4 2.65 4 4.3 4 6 C5.32 6 6.64 6 8 6 C8.33 8.31 8.66 10.62 9 13 C7.02 13 5.04 13 3 13 C2.49858258 11.02119196 1.99890291 9.0419435 1.5 7.0625 C1.2215625 5.96035156 0.943125 4.85820313 0.65625 3.72265625 C0 1 0 1 0 0 Z " fill="#0C3C8E" transform="translate(19,28)"/>
<path d="M0 0 C2 3 2 3 2 5 C2.99 5 3.98 5 5 5 C5 7.64 5 10.28 5 13 C3.35 13 1.7 13 0 13 C0.33 10.69 0.66 8.38 1 6 C-0.65 7.32 -2.3 8.64 -4 10 C-2.99806563 6.20696275 -2.18975773 3.28463659 0 0 Z " fill="#4C79B3" transform="translate(69,21)"/>
<path d="M0 0 C1.98 0 3.96 0 6 0 C6 0.33 6 0.66 6 1 C4.35 1 2.7 1 1 1 C1 4.96 1 8.92 1 13 C1.66 13 2.32 13 3 13 C3 10.03 3 7.06 3 4 C3.66 4.33 4.32 4.66 5 5 C4.67 7.97 4.34 10.94 4 14 C0.625 14.125 0.625 14.125 -3 14 C-3.66 13.34 -4.32 12.68 -5 12 C-7.32275177 11.59952556 -9.65739357 11.2602896 -12 11 C-12 10.67 -12 10.34 -12 10 C-9.03 10 -6.06 10 -3 10 C-2.67 9.34 -2.34 8.68 -2 8 C-2 8.66 -2 9.32 -2 10 C-1.34 10 -0.68 10 0 10 C0 6.7 0 3.4 0 0 Z " fill="#4B93CC" transform="translate(268,23)"/>
<path d="M0 0 C1.11084961 0.02030273 1.11084961 0.02030273 2.24414062 0.04101562 C4.05891075 0.07614021 5.87330288 0.12994028 7.6875 0.1875 C7.6875 0.8475 7.6875 1.5075 7.6875 2.1875 C8.6775 2.5175 9.6675 2.8475 10.6875 3.1875 C9.3675 4.5075 8.0475 5.8275 6.6875 7.1875 C7.0175 5.8675 7.3475 4.5475 7.6875 3.1875 C0.56971482 2.06682744 -5.33670757 2.3916045 -12.3125 4.1875 C-12.3125 5.1775 -12.3125 6.1675 -12.3125 7.1875 C-13.3025 7.1875 -14.2925 7.1875 -15.3125 7.1875 C-12.61305925 0.07079256 -6.82635982 -0.23791603 0 0 Z " fill="#FC0313" transform="translate(156.3125,14.8125)"/>
<path d="M0 0 C1.36511719 0.43119141 1.36511719 0.43119141 2.7578125 0.87109375 C3.45648438 1.09925781 4.15515625 1.32742187 4.875 1.5625 C5.205 0.5725 5.535 -0.4175 5.875 -1.4375 C8.375 -0.125 8.375 -0.125 10.875 1.5625 C10.875 2.5525 10.875 3.5425 10.875 4.5625 C6.585 4.2325 2.295 3.9025 -2.125 3.5625 C-2.455 2.5725 -2.785 1.5825 -3.125 0.5625 C-5.14008358 -0.17073796 -5.14008358 -0.17073796 -7.125 -0.4375 C-4.30685434 -1.84657283 -2.95222796 -0.94622691 0 0 Z " fill="#DEEFFA" transform="translate(317.125,36.4375)"/>
<path d="M0 0 C2.3125 -0.25 2.3125 -0.25 5 0 C6.875 1.75 6.875 1.75 8 4 C7.6875 6.25 7.6875 6.25 7 8 C7 7.34 7 6.68 7 6 C6.34 6 5.68 6 5 6 C5 6.99 5 7.98 5 9 C3.35 8.67 1.7 8.34 0 8 C0.185625 7.05125 0.37125 6.1025 0.5625 5.125 C1.28686632 2.10131207 1.28686632 2.10131207 0 0 Z " fill="#3B7EBB" transform="translate(257,23)"/>
<path d="M0 0 C2.31 0.33 4.62 0.66 7 1 C6.67 4.3 6.34 7.6 6 11 C3.69 11.33 1.38 11.66 -1 12 C-0.01 11.67 0.98 11.34 2 11 C2.05399736 9.54207116 2.09279177 8.08357288 2.125 6.625 C2.14820313 5.81289063 2.17140625 5.00078125 2.1953125 4.1640625 C2.21370051 1.78657757 2.21370051 1.78657757 0 0 Z " fill="#AAA9A9" transform="translate(422,26)"/>
<path d="M0 0 C0 0.33 0 0.66 0 1 C-7.59 1 -15.18 1 -23 1 C-23 0.34 -23 -0.32 -23 -1 C-20.47970021 -1.22389218 -17.96002743 -1.42942078 -15.4375 -1.625 C-14.73302734 -1.68945312 -14.02855469 -1.75390625 -13.30273438 -1.8203125 C-8.37705301 -2.18349638 -4.67412034 -1.60922409 0 0 Z " fill="#026BB7" transform="translate(277,18)"/>
<path d="M0 0 C1.9375 0.375 1.9375 0.375 4 1 C4.33 1.66 4.66 2.32 5 3 C3.68 3 2.36 3 1 3 C1.66 3.66 2.32 4.32 3 5 C-0.08809695 6.76462683 -1.23312136 7 -5 7 C-5 6.34 -5 5.68 -5 5 C-9.62 5 -14.24 5 -19 5 C-19 4.67 -19 4.34 -19 4 C-17.87980469 3.93941406 -16.75960938 3.87882812 -15.60546875 3.81640625 C-14.13280016 3.73198576 -12.66014456 3.64733851 -11.1875 3.5625 C-10.44951172 3.52318359 -9.71152344 3.48386719 -8.95117188 3.44335938 C-5.76928658 3.25618965 -3.03837622 3.01279207 0 2 C0 1.34 0 0.68 0 0 Z " fill="#B4D7F3" transform="translate(311,33)"/>
<path d="M0 0 C0.33 0 0.66 0 1 0 C1 4.62 1 9.24 1 14 C-0.98 14 -2.96 14 -5 14 C-7.42857143 7.71428571 -7.42857143 7.71428571 -6 4 C-5.01 4 -4.02 4 -3 4 C-3 6.97 -3 9.94 -3 13 C-2.01 13 -1.02 13 0 13 C0 8.71 0 4.42 0 0 Z " fill="#BCDDF3" transform="translate(289,24)"/>
<path d="M0 0 C1.25 2.125 1.25 2.125 2 4 C1.071875 3.690625 0.14375 3.38125 -0.8125 3.0625 C-5.77871546 1.6216844 -10.86205306 1.35305964 -16 1 C-16 0.34 -16 -0.32 -16 -1 C-14.08496326 -1.22281874 -12.16783494 -1.42771076 -10.25 -1.625 C-9.18265625 -1.74101562 -8.1153125 -1.85703125 -7.015625 -1.9765625 C-3.9314735 -2.00053259 -2.51489348 -1.72316775 0 0 Z " fill="#2E344B" transform="translate(190,12)"/>
<path d="M0 0 C0.33 0.66 0.66 1.32 1 2 C1.66 2.33 2.32 2.66 3 3 C2.34 3 1.68 3 1 3 C1 4.65 1 6.3 1 8 C1.66 8.33 2.32 8.66 3 9 C2.34 9 1.68 9 1 9 C0.67 9.66 0.34 10.32 0 11 C0 10.01 0 9.02 0 8 C-1.65 7.67 -3.3 7.34 -5 7 C-4.67 5.35 -4.34 3.7 -4 2 C-2.68 2 -1.36 2 0 2 C0 1.34 0 0.68 0 0 Z " fill="#EDF0F0" transform="translate(397,27)"/>
<path d="M0 0 C1.98 0 3.96 0 6 0 C5.22095672 14.78132118 5.22095672 14.78132118 3 21 C2.67 21 2.34 21 2 21 C1.76331431 13.96517526 2.2120463 7.8165735 4 1 C2.68 1.33 1.36 1.66 0 2 C0 1.34 0 0.68 0 0 Z " fill="#648BBA" transform="translate(39,20)"/>
<path d="M0 0 C5.28 0 10.56 0 16 0 C16.33 0.99 16.66 1.98 17 3 C15.25 4.5625 15.25 4.5625 13 6 C10.75 5.6875 10.75 5.6875 9 5 C9.99 3.68 10.98 2.36 12 1 C8.04 1 4.08 1 0 1 C0 0.67 0 0.34 0 0 Z M10 7 C10.99 7.495 10.99 7.495 12 8 C11.34 8.66 10.68 9.32 10 10 C10 9.01 10 8.02 10 7 Z M8 10 C8.99 10.495 8.99 10.495 10 11 C9.01 11.495 9.01 11.495 8 12 C8 11.34 8 10.68 8 10 Z " fill="#2988C8" transform="translate(316,19)"/>
<path d="M0 0 C3.3 0.33 6.6 0.66 10 1 C9.67 2.32 9.34 3.64 9 5 C6.36 5 3.72 5 1 5 C0.67 3.35 0.34 1.7 0 0 Z " fill="#295199" transform="translate(46,37)"/>
<path d="M0 0 C0.33 0.66 0.66 1.32 1 2 C3.64 2 6.28 2 9 2 C9 2.99 9 3.98 9 5 C6.36 5 3.72 5 1 5 C1 5.99 1 6.98 1 8 C3.31 8 5.62 8 8 8 C8 8.33 8 8.66 8 9 C5.36 9 2.72 9 0 9 C0 6.03 0 3.06 0 0 Z " fill="#498FCA" transform="translate(295,26)"/>
<path d="M0 0 C2.97 0 5.94 0 9 0 C11 4 11 4 10.625 6.25 C10.41875 6.8275 10.2125 7.405 10 8 C9.4225 7.360625 8.845 6.72125 8.25 6.0625 C6.01937599 4.01776132 4.92563609 3.41794801 2 3 C2 2.34 2 1.68 2 1 C1.34 0.67 0.68 0.34 0 0 Z " fill="#F1B043" transform="translate(13,20)"/>
<path d="M0 0 C0.66 0 1.32 0 2 0 C1.67 1.32 1.34 2.64 1 4 C-4.75 4.125 -4.75 4.125 -7 3 C-6.67 4.32 -6.34 5.64 -6 7 C-2.7 7 0.6 7 4 7 C3.67 7.66 3.34 8.32 3 9 C-0.63 9 -4.26 9 -8 9 C-8 6.69 -8 4.38 -8 2 C-5.36 2 -2.72 2 0 2 C0 1.34 0 0.68 0 0 Z " fill="#ABC6DE" transform="translate(53,34)"/>
<path d="M0 0 C2.97 0 5.94 0 9 0 C9 0.33 9 0.66 9 1 C7.02 1.33 5.04 1.66 3 2 C2.67 4.97 2.34 7.94 2 11 C4.31 11 6.62 11 9 11 C9 11.33 9 11.66 9 12 C6.03 12 3.06 12 0 12 C0 8.04 0 4.08 0 0 Z " fill="#0A60AC" transform="translate(293,24)"/>
<path d="M0 0 C3.63 0 7.26 0 11 0 C8.75 4.5 8.75 4.5 5 6 C4.67 5.01 4.34 4.02 4 3 C2.35 3 0.7 3 -1 3 C-0.67 2.01 -0.34 1.02 0 0 Z " fill="#E3F3FB" transform="translate(317,20)"/>
<path d="M0 0 C0.99 0.33 1.98 0.66 3 1 C2.34 1 1.68 1 1 1 C1.3403125 2.0828125 1.3403125 2.0828125 1.6875 3.1875 C2 6 2 6 1 8.8125 C-1 11 -1 11 -4.6875 11.3125 C-5.780625 11.209375 -6.87375 11.10625 -8 11 C-8.33 10.34 -8.66 9.68 -9 9 C-7.68 9.33 -6.36 9.66 -5 10 C-5 9.34 -5 8.68 -5 8 C-3.68 8 -2.36 8 -1 8 C-1.33 5.69 -1.66 3.38 -2 1 C-1.34 0.67 -0.68 0.34 0 0 Z " fill="#E3A266" transform="translate(409,27)"/>
<path d="M0 0 C0.66 0.33 1.32 0.66 2 1 C1.03502515 3.6317496 0.41171461 4.77878021 -2.09375 6.125 C-5.70606651 7.21257916 -9.08246709 7.21780465 -12.8125 7.125 C-13.85180664 7.11146484 -13.85180664 7.11146484 -14.91210938 7.09765625 C-16.60822395 7.07426157 -18.30415871 7.03839641 -20 7 C-20 6.67 -20 6.34 -20 6 C-19.13117188 5.97421875 -18.26234375 5.9484375 -17.3671875 5.921875 C-10.05682756 5.562081 -5.28831857 5.28831857 0 0 Z " fill="#5F514A" transform="translate(194,42)"/>
<path d="M0 0 C5.94 0 11.88 0 18 0 C17.01 0.495 17.01 0.495 16 1 C16 1.66 16 2.32 16 3 C13.89646505 3.0810206 11.79204048 3.13919907 9.6875 3.1875 C8.51574219 3.22230469 7.34398437 3.25710937 6.13671875 3.29296875 C3 3 3 3 0 0 Z " fill="#FD0212" transform="translate(146,44)"/>
<path d="M0 0 C6.0546875 -0.1953125 6.0546875 -0.1953125 8 0 C8.66 0.66 9.32 1.32 10 2 C11.98821313 2.39764263 13.98944339 2.73775349 16 3 C16 3.33 16 3.66 16 4 C13.36 4 10.72 4 8 4 C7.67 4.66 7.34 5.32 7 6 C5.35 5.67 3.7 5.34 2 5 C2 4.34 2 3.68 2 3 C3.32 3 4.64 3 6 3 C6 2.34 6 1.68 6 1 C4.35 1 2.7 1 1 1 C1 1.66 1 2.32 1 3 C0.34 2.67 -0.32 2.34 -1 2 C-0.67 1.34 -0.34 0.68 0 0 Z " fill="#B6D6ED" transform="translate(255,34)"/>
<path d="M0 0 C1.25541557 3.76624671 0.37061958 5.37188934 -1 9 C-1.99 9 -2.98 9 -4 9 C-4.66 6.36 -5.32 3.72 -6 1 C-4.7934375 1.0309375 -4.7934375 1.0309375 -3.5625 1.0625 C-1.06645115 1.29633621 -1.06645115 1.29633621 0 0 Z " fill="#E6F3FE" transform="translate(281,22)"/>
<path d="M0 0 C0.33 0.66 0.66 1.32 1 2 C0.37351562 2.03738281 -0.25296875 2.07476563 -0.8984375 2.11328125 C-1.71570312 2.17902344 -2.53296875 2.24476562 -3.375 2.3125 C-4.59316406 2.39951172 -4.59316406 2.39951172 -5.8359375 2.48828125 C-8.37921338 2.82990528 -8.37921338 2.82990528 -10 6 C-10.16699232 9.12521833 -10.16699232 9.12521833 -10 12 C-10.99 11.34 -11.98 10.68 -13 10 C-13.4375 7.625 -13.4375 7.625 -13 5 C-9.18065567 0.25874497 -5.88098696 -0.1306886 0 0 Z " fill="#4770A9" transform="translate(60,19)"/>
<path d="M0 0 C0.33 0 0.66 0 1 0 C1.06058594 0.73605469 1.12117187 1.47210937 1.18359375 2.23046875 C1.26738281 3.20628906 1.35117188 4.18210937 1.4375 5.1875 C1.51871094 6.15042969 1.59992188 7.11335938 1.68359375 8.10546875 C1.9789055 10.80702439 2.29723616 13.37388249 3 16 C4.96758273 17.36020151 4.96758273 17.36020151 7 18 C7 18.66 7 19.32 7 20 C5.68 20 4.36 20 3 20 C2.67 18.35 2.34 16.7 2 15 C1.34 15 0.68 15 0 15 C0 10.05 0 5.1 0 0 Z " fill="#FA0314" transform="translate(139,24)"/>
<path d="M0 0 C0.66 0.33 1.32 0.66 2 1 C1.01 1.33 0.02 1.66 -1 2 C-1 2.66 -1 3.32 -1 4 C-3.64458379 5.32229189 -5.67761301 5.09677194 -8.625 5.0625 C-9.62789062 5.05347656 -10.63078125 5.04445313 -11.6640625 5.03515625 C-12.43492187 5.02355469 -13.20578125 5.01195312 -14 5 C-14 4.34 -14 3.68 -14 3 C-13.15695313 2.86722656 -12.31390625 2.73445313 -11.4453125 2.59765625 C-10.34960938 2.42105469 -9.25390625 2.24445312 -8.125 2.0625 C-6.48917969 1.80146484 -6.48917969 1.80146484 -4.8203125 1.53515625 C-2.06178454 1.14448841 -2.06178454 1.14448841 0 0 Z " fill="#022160" transform="translate(191,47)"/>
<path d="M0 0 C2.97 0.495 2.97 0.495 6 1 C6 1.99 6 2.98 6 4 C10.29 4 14.58 4 19 4 C19 4.33 19 4.66 19 5 C16.77144426 5.0814222 14.54202345 5.13938079 12.3125 5.1875 C10.45044922 5.23970703 10.45044922 5.23970703 8.55078125 5.29296875 C4.80008965 4.98350575 2.93281045 4.31596695 0 2 C0 1.34 0 0.68 0 0 Z " fill="#EAA61E" transform="translate(168,43)"/>
<path d="M0 0 C1.32 0.33 2.64 0.66 4 1 C4 1.66 4 2.32 4 3 C8.29 3 12.58 3 17 3 C17 3.66 17 4.32 17 5 C15.10489301 5.08160748 13.20875496 5.13946459 11.3125 5.1875 C9.72888672 5.23970703 9.72888672 5.23970703 8.11328125 5.29296875 C4.61841396 4.96409165 2.77061447 4.12293836 0 2 C0 1.34 0 0.68 0 0 Z " fill="#076EB9" transform="translate(312,39)"/>
<path d="M0 0 C0.66 0.33 1.32 0.66 2 1 C2.33 1.99 2.66 2.98 3 4 C3.66 4.33 4.32 4.66 5 5 C5 5.99 5 6.98 5 8 C2.36 8.33 -0.28 8.66 -3 9 C-3.33 8.34 -3.66 7.68 -4 7 C-2.68 7.33 -1.36 7.66 0 8 C0 5.36 0 2.72 0 0 Z " fill="#B7B7B5" transform="translate(380,28)"/>
<path d="M0 0 C0.99 0.33 1.98 0.66 3 1 C2.67 3.97 2.34 6.94 2 10 C1.01 10 0.02 10 -1 10 C-1.02689216 8.52093108 -1.04634621 7.04172517 -1.0625 5.5625 C-1.07410156 4.73878906 -1.08570313 3.91507813 -1.09765625 3.06640625 C-1 1 -1 1 0 0 Z " fill="#3D3B3C" transform="translate(422,27)"/>
<path d="M0 0 C0 0.99 0 1.98 0 3 C-0.66 3 -1.32 3 -2 3 C-2 3.99 -2 4.98 -2 6 C-2.66 6 -3.32 6 -4 6 C-4 6.99 -4 7.98 -4 9 C-5.32 8.67 -6.64 8.34 -8 8 C-6.49776416 3.79373966 -3.71449966 2.26099979 0 0 Z " fill="#1A76BD" transform="translate(328,23)"/>
<path d="M0 0 C0.99 0.33 1.98 0.66 3 1 C2.34 1 1.68 1 1 1 C1.33 1.99 1.66 2.98 2 4 C-4.93 4 -11.86 4 -19 4 C-19 3.67 -19 3.34 -19 3 C-17.79601562 2.95101562 -16.59203125 2.90203125 -15.3515625 2.8515625 C-13.77601802 2.77653657 -12.20049834 2.70098867 -10.625 2.625 C-9.8309375 2.5940625 -9.036875 2.563125 -8.21875 2.53125 C-3.63332625 2.48183579 -3.63332625 2.48183579 0 0 Z " fill="#227EC2" transform="translate(311,38)"/>
<path d="M0 0 C2.97 0.495 2.97 0.495 6 1 C6.33 1.99 6.66 2.98 7 4 C10.96 4 14.92 4 19 4 C19 4.33 19 4.66 19 5 C6.10331231 5.68884385 6.10331231 5.68884385 2.1875 3.0625 C1.465625 2.381875 0.74375 1.70125 0 1 C0 0.67 0 0.34 0 0 Z " fill="#901639" transform="translate(142,44)"/>
<path d="M0 0 C0.99 0 1.98 0 3 0 C2.5205537 4.21912747 1.83374881 6.79663178 -1 10 C-1.99 9.34 -2.98 8.68 -4 8 C-3.2884375 7.13375 -3.2884375 7.13375 -2.5625 6.25 C-1.0515133 4.07417916 -0.45963849 2.57397552 0 0 Z " fill="#CFE3F4" transform="translate(61,32)"/>
<path d="M0 0 C1.32 0.33 2.64 0.66 4 1 C4 1.66 4 2.32 4 3 C5.32 2.67 6.64 2.34 8 2 C8 2.66 8 3.32 8 4 C6.68 4 5.36 4 4 4 C3.67 5.32 3.34 6.64 3 8 C2.67 6.68 2.34 5.36 2 4 C1.34 4 0.68 4 0 4 C0 2.68 0 1.36 0 0 Z " fill="#3880C3" transform="translate(307,24)"/>
<path d="M0 0 C1.485 0.99 1.485 0.99 3 2 C3.29296875 4.6015625 3.29296875 4.6015625 3.1875 7.625 C3.16042969 8.62789062 3.13335937 9.63078125 3.10546875 10.6640625 C3.07066406 11.43492188 3.03585938 12.20578125 3 13 C2.34 13 1.68 13 1 13 C0.67 8.71 0.34 4.42 0 0 Z " fill="#BB862C" transform="translate(197,23)"/>
<path d="M0 0 C0.99 0.33 1.98 0.66 3 1 C3 1.99 3 2.98 3 4 C3.66 4.33 4.32 4.66 5 5 C5 5.66 5 6.32 5 7 C4.01 7 3.02 7 2 7 C2 7.66 2 8.32 2 9 C1.34 9 0.68 9 0 9 C0 6.03 0 3.06 0 0 Z " fill="#3E3E3E" transform="translate(428,28)"/>
<path d="M0 0 C0.98120464 3.05263664 0.98120464 4.94736336 0 8 C0.66 8 1.32 8 2 8 C2.33 7.01 2.66 6.02 3 5 C3.33 5.66 3.66 6.32 4 7 C3.06421005 9.35981813 2.06652192 11.69631264 1 14 C0.67 14 0.34 14 0 14 C-0.19532961 12.2300132 -0.38098882 10.45895721 -0.5625 8.6875 C-0.66691406 7.70136719 -0.77132813 6.71523438 -0.87890625 5.69921875 C-1 3 -1 3 0 0 Z " fill="#426EAC" transform="translate(28,27)"/>
<path d="M0 0 C2.66710654 0.15240609 4.4505871 0.49364919 6.4453125 2.33203125 C10 6.50625 10 6.50625 10 9 C9.34 9 8.68 9 8 9 C7.67 7.68 7.34 6.36 7 5 C6.401875 4.9175 5.80375 4.835 5.1875 4.75 C2.4033704 3.79544128 1.56688858 2.42867729 0 0 Z " fill="#0B72B7" transform="translate(322,32)"/>
<path d="M0 0 C1.32 0.33 2.64 0.66 4 1 C3.67 2.98 3.34 4.96 3 7 C2.01 7 1.02 7 0 7 C0 4.69 0 2.38 0 0 Z " fill="#1F4693" transform="translate(57,31)"/>
<path d="M0 0 C0.268125 0.598125 0.53625 1.19625 0.8125 1.8125 C1.8893979 4.04327908 1.8893979 4.04327908 3.625 5.625 C4.07875 6.07875 4.5325 6.5325 5 7 C5 7.66 5 8.32 5 9 C2.625 8.3125 2.625 8.3125 0 7 C-1.3125 4.375 -1.3125 4.375 -2 2 C-1.34 1.34 -0.68 0.68 0 0 Z " fill="#022562" transform="translate(191,8)"/>
<path d="M0 0 C1.65 0 3.3 0 5 0 C5 0.66 5 1.32 5 2 C5.66 2.33 6.32 2.66 7 3 C6.01 4.485 6.01 4.485 5 6 C3.68 5.67 2.36 5.34 1 5 C1.33 4.01 1.66 3.02 2 2 C1.34 1.34 0.68 0.68 0 0 Z " fill="#D3D3D1" transform="translate(384,26)"/>
<path d="M0 0 C0.66 0 1.32 0 2 0 C2.103125 1.11375 2.20625 2.2275 2.3125 3.375 C2.539375 4.57125 2.76625 5.7675 3 7 C3.99 7.66 4.98 8.32 6 9 C4.02 9 2.04 9 0 9 C0 6.03 0 3.06 0 0 Z " fill="#2E2F2C" transform="translate(368,28)"/>
<path d="M0 0 C1.875 0.3125 1.875 0.3125 4 1 C4.66 1.99 5.32 2.98 6 4 C5.34 4 4.68 4 4 4 C3.67 4.66 3.34 5.32 3 6 C1.35 6 -0.3 6 -2 6 C-2.33 5.34 -2.66 4.68 -3 4 C-1.68 4.33 -0.36 4.66 1 5 C0.67 3.35 0.34 1.7 0 0 Z " fill="#BFDAF1" transform="translate(319,32)"/>
<path d="M0 0 C2.5 1.75 2.5 1.75 5 4 C5 5.32 5 6.64 5 8 C3.68 7.67 2.36 7.34 1 7 C0.67 4.69 0.34 2.38 0 0 Z " fill="#185FAF" transform="translate(275,29)"/>
<path d="M0 0 C0.66 0 1.32 0 2 0 C1.01 2.97 0.02 5.94 -1 9 C-1.99 9 -2.98 9 -4 9 C-4 7.68 -4 6.36 -4 5 C-3.01 5 -2.02 5 -1 5 C-0.67 3.35 -0.34 1.7 0 0 Z " fill="#353132" transform="translate(417,28)"/>
<path d="M0 0 C0.99 0 1.98 0 3 0 C3 1.98 3 3.96 3 6 C1.68 6 0.36 6 -1 6 C-0.67 4.02 -0.34 2.04 0 0 Z " fill="#C5DBEB" transform="translate(71,28)"/>
<path d="M0 0 C0.78375 0.04125 1.5675 0.0825 2.375 0.125 C2.375 0.785 2.375 1.445 2.375 2.125 C1.055 2.125 -0.265 2.125 -1.625 2.125 C-1.625 2.785 -1.625 3.445 -1.625 4.125 C-2.285 4.125 -2.945 4.125 -3.625 4.125 C-3.625 4.785 -3.625 5.445 -3.625 6.125 C-4.285 6.125 -4.945 6.125 -5.625 6.125 C-4.86443086 2.32215429 -4.27658992 0.20364714 0 0 Z " fill="#3D3C3C" transform="translate(394.625,26.875)"/>
<path d="M0 0 C0.33 0 0.66 0 1 0 C1 1.65 1 3.3 1 5 C2.32 5.33 3.64 5.66 5 6 C5 6.66 5 7.32 5 8 C3.35 8 1.7 8 0 8 C-1.125 2.25 -1.125 2.25 0 0 Z " fill="#012B85" transform="translate(50,23)"/>
<path d="M0 0 C1.90845703 0.04060547 1.90845703 0.04060547 3.85546875 0.08203125 C5.31919922 0.13423828 5.31919922 0.13423828 6.8125 0.1875 C6.8125 0.5175 6.8125 0.8475 6.8125 1.1875 C2.8525 1.1875 -1.1075 1.1875 -5.1875 1.1875 C-5.1875 1.8475 -5.1875 2.5075 -5.1875 3.1875 C-6.8375 3.1875 -8.4875 3.1875 -10.1875 3.1875 C-7.45798749 -0.67846382 -4.44588996 -0.12236394 0 0 Z " fill="#012368" transform="translate(179.1875,9.8125)"/>
<path d="M0 0 C0.99 0 1.98 0 3 0 C3 2.31 3 4.62 3 7 C2.01 7 1.02 7 0 7 C0 4.69 0 2.38 0 0 Z " fill="#D8D7D7" transform="translate(424,29)"/>
<path d="M0 0 C0.99 0.33 1.98 0.66 3 1 C2.67 2.65 2.34 4.3 2 6 C1.01 6 0.02 6 -1 6 C-1.042721 4.33388095 -1.04063832 2.66617115 -1 1 C-0.67 0.67 -0.34 0.34 0 0 Z " fill="#CACAC8" transform="translate(371,29)"/>
<path d="M0 0 C2.75 -0.375 2.75 -0.375 6 0 C8.375 3 8.375 3 10 6 C9.4225 5.690625 8.845 5.38125 8.25 5.0625 C6.15705816 4.07416636 4.25464725 3.4831387 2 3 C2 2.34 2 1.68 2 1 C1.34 0.67 0.68 0.34 0 0 Z " fill="#484745" transform="translate(368,27)"/>
<path d="M0 0 C1.32 0 2.64 0 4 0 C4 0.66 4 1.32 4 2 C4.99 2.33 5.98 2.66 7 3 C5.68 4.32 4.36 5.64 3 7 C3.33 5.68 3.66 4.36 4 3 C1.03 2.505 1.03 2.505 -2 2 C-1.34 1.34 -0.68 0.68 0 0 Z " fill="#F81214" transform="translate(160,15)"/>
<path d="M0 0 C0.66 0 1.32 0 2 0 C2.66 2.64 3.32 5.28 4 8 C2.68 8 1.36 8 0 8 C0 5.36 0 2.72 0 0 Z " fill="#D1E7F8" transform="translate(272,28)"/>
<path d="M0 0 C0.99 0.33 1.98 0.66 3 1 C2.34 3.31 1.68 5.62 1 8 C0.896875 7.360625 0.79375 6.72125 0.6875 6.0625 C0.460625 5.381875 0.23375 4.70125 0 4 C-0.99 3.67 -1.98 3.34 -3 3 C-2.01 2.67 -1.02 2.34 0 2 C0 1.34 0 0.68 0 0 Z " fill="#4A91CA" transform="translate(280,29)"/>
<path d="M0 0 C2.475 0.495 2.475 0.495 5 1 C5 1.99 5 2.98 5 4 C3.68 4 2.36 4 1 4 C0.67 2.68 0.34 1.36 0 0 Z " fill="#1471BB" transform="translate(310,17)"/>
<path d="M0 0 C0.33 0.66 0.66 1.32 1 2 C1.66 2.33 2.32 2.66 3 3 C2.34 3 1.68 3 1 3 C1 4.65 1 6.3 1 8 C1.66 8.33 2.32 8.66 3 9 C2.34 9 1.68 9 1 9 C0.67 9.66 0.34 10.32 0 11 C0 8.36 0 5.72 0 3 C-1.32 2.67 -2.64 2.34 -4 2 C-2.68 2 -1.36 2 0 2 C0 1.34 0 0.68 0 0 Z " fill="#B9ACAA" transform="translate(397,27)"/>
<path d="M0 0 C1.32 0.33 2.64 0.66 4 1 C3.34 2.32 2.68 3.64 2 5 C0.68 4.67 -0.64 4.34 -2 4 C-1.34 2.68 -0.68 1.36 0 0 Z " fill="#4A4947" transform="translate(383,27)"/>
<path d="M0 0 C3.16115776 1.36983503 3.9927092 1.9890638 6 5 C5.67 5.99 5.34 6.98 5 8 C5 7.34 5 6.68 5 6 C4.34 6 3.68 6 3 6 C3 5.34 3 4.68 3 4 C2.34 4 1.68 4 1 4 C0.67 2.68 0.34 1.36 0 0 Z " fill="#F6B51D" transform="translate(191,17)"/>
<path d="M0 0 C2.8203125 -0.29296875 2.8203125 -0.29296875 6.125 -0.1875 C7.76855469 -0.14689453 7.76855469 -0.14689453 9.4453125 -0.10546875 C10.28835937 -0.07066406 11.13140625 -0.03585937 12 0 C12 0.33 12 0.66 12 1 C11.11248047 1.09087891 11.11248047 1.09087891 10.20703125 1.18359375 C6.09021792 1.62012371 2.04455467 2.08671346 -2 3 C-1.34 2.01 -0.68 1.02 0 0 Z " fill="#013767" transform="translate(148,10)"/>
<path d="M0 0 C0 0.99 0 1.98 0 3 C-2.64 3 -5.28 3 -8 3 C-8 2.34 -8 1.68 -8 1 C-2.25 0 -2.25 0 0 0 Z " fill="#02237A" transform="translate(56,38)"/>
<path d="M0 0 C0.99 0 1.98 0 3 0 C3 1.65 3 3.3 3 5 C1.68 5 0.36 5 -1 5 C-0.67 3.35 -0.34 1.7 0 0 Z " fill="#B2D6F2" transform="translate(258,26)"/>
<path d="M0 0 C1.65 0.33 3.3 0.66 5 1 C4.01 1.33 3.02 1.66 2 2 C1.67 3.65 1.34 5.3 1 7 C0.01 6.67 -0.98 6.34 -2 6 C-1.34 4.02 -0.68 2.04 0 0 Z " fill="#2372BB" transform="translate(256,24)"/>
<path d="M0 0 C0.33 0.66 0.66 1.32 1 2 C1.66 2.33 2.32 2.66 3 3 C2.01 4.485 2.01 4.485 1 6 C0.01 6 -0.98 6 -2 6 C-1.49396008 3.83125748 -1.00016187 2.00032373 0 0 Z " fill="#2C6EB4" transform="translate(253,31)"/>
<path d="M0 0 C0.66 0 1.32 0 2 0 C0.25 5.75 0.25 5.75 -2 8 C-1.125 1.125 -1.125 1.125 0 0 Z " fill="#022680" transform="translate(68,27)"/>
<path d="M0 0 C0.99 0 1.98 0 3 0 C2.01 3.3 1.02 6.6 0 10 C-1.00000429 5.99998285 -0.80688405 3.94476647 0 0 Z " fill="#B7CFE7" transform="translate(28,20)"/>
<path d="M0 0 C0.928125 0.20625 1.85625 0.4125 2.8125 0.625 C-0.15437001 2.27326111 -2.84376525 3.06771087 -6.1875 3.625 C-6.1875 2.965 -6.1875 2.305 -6.1875 1.625 C-3.1875 -0.375 -3.1875 -0.375 0 0 Z " fill="#292750" transform="translate(171.1875,12.375)"/>
</svg>
