<?xml version="1.0" encoding="UTF-8"?>
<svg version="1.1" xmlns="http://www.w3.org/2000/svg" width="250" height="48">
<path d="M0 0 C33.66 0 67.32 0 102 0 C102 7.92 102 15.84 102 24 C68.34 24 34.68 24 0 24 C0 16.08 0 8.16 0 0 Z " fill="#D9B30B" transform="translate(148,12)"/>
<path d="M0 0 C0.92876953 -0.00708984 1.85753906 -0.01417969 2.81445312 -0.02148438 C8.43653745 0.02980482 16.66550052 0.16550052 20.9375 4.4375 C21.24994563 8.95093867 21.21612902 13.47709519 21.25 18 C21.27900391 19.26392578 21.30800781 20.52785156 21.33789062 21.83007812 C21.42627658 34.83641139 21.42627658 34.83641139 16.9375 40.4375 C14.5 42.4609375 14.5 42.4609375 11.9375 43.8125 C11.091875 44.27398437 10.24625 44.73546875 9.375 45.2109375 C8.570625 45.61570313 7.76625 46.02046875 6.9375 46.4375 C6.25042969 46.82292969 5.56335938 47.20835938 4.85546875 47.60546875 C1.51199237 49.0558974 -1.66731644 48.35366064 -5.0625 47.4375 C-11.32281284 44.88464823 -16.4378668 41.223968 -20.0625 35.4375 C-21.19220735 31.99049456 -21.17718185 28.75005282 -21.16015625 25.140625 C-21.15693359 23.93535156 -21.15371094 22.73007812 -21.15039062 21.48828125 C-21.14201172 20.23402344 -21.13363281 18.97976562 -21.125 17.6875 C-21.12048828 16.41777344 -21.11597656 15.14804688 -21.11132812 13.83984375 C-21.09954556 10.70568164 -21.08309416 7.57161459 -21.0625 4.4375 C-13.89000067 1.00946007 -7.91691225 -0.17102737 0 0 Z " fill="#B98544" transform="translate(115.0625,-0.4375)"/>
<path d="M0 0 C4.62 0 9.24 0 14 0 C14.33 1.98 14.66 3.96 15 6 C14 7 14 7 10.4375 7.0625 C9.303125 7.041875 8.16875 7.02125 7 7 C7 7.66 7 8.32 7 9 C8.918125 9.0309375 8.918125 9.0309375 10.875 9.0625 C11.59429687 9.07410156 12.31359375 9.08570313 13.0546875 9.09765625 C15.08185404 9.12649242 15.08185404 9.12649242 17 8 C22.02618483 7.6206653 24.89888036 8.01736753 29 11 C29.515625 10.484375 30.03125 9.96875 30.5625 9.4375 C33.9710271 7.42734299 36.23106857 8.20272604 40 9 C40 6.03 40 3.06 40 0 C46.27 0 52.54 0 59 0 C59 2.31 59 4.62 59 7 C56.69 7 54.38 7 52 7 C52 7.66 52 8.32 52 9 C52.96421875 8.96519531 53.9284375 8.93039063 54.921875 8.89453125 C56.18515625 8.86746094 57.4484375 8.84039062 58.75 8.8125 C60.62945312 8.76029297 60.62945312 8.76029297 62.546875 8.70703125 C66.14109357 9.01197061 67.44725126 9.54394629 70 12 C70.33 11.01 70.66 10.02 71 9 C73.64 9 76.28 9 79 9 C77.70700306 11.88437779 76.34058637 13.87219421 74 16 C75.00445663 18.24071094 75.87754985 19.87754985 77.625 21.625 C78.07875 22.07875 78.5325 22.5325 79 23 C79 23.66 79 24.32 79 25 C77.1128125 25.061875 77.1128125 25.061875 75.1875 25.125 C74.12595703 25.15980469 74.12595703 25.15980469 73.04296875 25.1953125 C71 25 71 25 68 23 C67.34 23.66 66.68 24.32 66 25 C63.3737793 25.21118164 63.3737793 25.21118164 60.07421875 25.16015625 C58.29047852 25.1437207 58.29047852 25.1437207 56.47070312 25.12695312 C54.59801758 25.09504883 54.59801758 25.09504883 52.6875 25.0625 C50.23313314 25.02796748 47.77869923 24.99785081 45.32421875 24.97265625 C43.6858606 24.94570679 43.6858606 24.94570679 42.0144043 24.91821289 C39.02836955 24.90324709 39.02836955 24.90324709 36.29223633 25.60327148 C34 26 34 26 31 24.375 C29.515 23.694375 29.515 23.694375 28 23 C26.30712215 23.95495674 24.64142963 24.9590934 23 26 C19.06213119 25.93091458 16.81210855 25.59839577 13.625 23.25 C11.84011331 20.77861843 11.33397849 19.00580638 11 16 C9.68 15.67 8.36 15.34 7 15 C7 18.3 7 21.6 7 25 C4.69 25 2.38 25 0 25 C0 16.75 0 8.5 0 0 Z M59 11 C59 12.32 59 13.64 59 15 C56.69 15 54.38 15 52 15 C52.33 16.32 52.66 17.64 53 19 C54.98 18.67 56.96 18.34 59 18 C59 19.65 59 21.3 59 23 C60.65 21.35 62.3 19.7 64 18 C62.70700306 15.11562221 61.34058637 13.12780579 59 11 Z M35 14 C33.98888907 17.04913228 33.98888907 17.04913228 35 20 C36.32 20 37.64 20 39 20 C39 18.02 39 16.04 39 14 C37.68 14 36.36 14 35 14 Z M18 19 C19.98 19.99 19.98 19.99 22 21 C22.33 20.34 22.66 19.68 23 19 C21.35 19 19.7 19 18 19 Z " fill="#4C1689" transform="translate(0,11)"/>
<path d="M0 0 C33.66 0 67.32 0 102 0 C102 4.62 102 9.24 102 14 C98.04 14 94.08 14 90 14 C90 14.66 90 15.32 90 16 C89.01 15.505 89.01 15.505 88 15 C88 14.67 88 14.34 88 14 C86.700625 13.835 85.40125 13.67 84.0625 13.5 C82.96615234 13.36078125 82.96615234 13.36078125 81.84765625 13.21875 C80.14458268 12.98040465 80.14458268 12.98040465 79 13 C75.66666667 13 72.33333333 13 69 13 C69.4640625 12.1028125 69.4640625 12.1028125 69.9375 11.1875 C71.10209704 8.91043228 71.10209704 8.91043228 72 6 C70.39667209 5.91878076 68.79215974 5.86070866 67.1875 5.8125 C65.84751953 5.76029297 65.84751953 5.76029297 64.48046875 5.70703125 C61.53366775 6.05507861 60.88183389 6.80452713 59 9 C56.8125 9.6875 56.8125 9.6875 55 10 C55.66 8.68 56.32 7.36 57 6 C54.03 5.67 51.06 5.34 48 5 C47.34 6.32 46.68 7.64 46 9 C45.34 9 44.68 9 44 9 C43.57356201 8.35256836 43.14712402 7.70513672 42.70776367 7.03808594 C41.16368805 4.77541441 41.16368805 4.77541441 38.5480957 4.45410156 C37.60023193 4.4331543 36.65236816 4.41220703 35.67578125 4.390625 C34.64775391 4.35839844 33.61972656 4.32617188 32.56054688 4.29296875 C31.48869141 4.27878906 30.41683594 4.26460937 29.3125 4.25 C28.22904297 4.22035156 27.14558594 4.19070312 26.02929688 4.16015625 C23.35278941 4.08941156 20.67715521 4.03673844 18 4 C17.34 5.98 16.68 7.96 16 10 C17.32 10.33 18.64 10.66 20 11 C18.35 13.31 16.7 15.62 15 18 C14.67 17.34 14.34 16.68 14 16 C14.33 15.34 14.66 14.68 15 14 C10.05 14 5.1 14 0 14 C0 9.38 0 4.76 0 0 Z " fill="#FDCC06" transform="translate(148,12)"/>
<path d="M0 0 C1.175625 0.01353516 1.175625 0.01353516 2.375 0.02734375 C4.29180055 0.05071937 6.20844191 0.08658347 8.125 0.125 C8.24147041 4.66644994 8.31234502 9.20751394 8.375 13.75 C8.40851563 15.03519531 8.44203125 16.32039063 8.4765625 17.64453125 C8.57465605 27.11055858 8.57465605 27.11055858 6.5078125 31.7734375 C3.76584982 34.47944002 1.14025878 36.29157334 -2.25 38.125 C-3.90128906 39.053125 -3.90128906 39.053125 -5.5859375 40 C-9.61023007 41.37648012 -11.08153789 40.90496923 -14.875 39.125 C-17.17578125 37.94140625 -17.17578125 37.94140625 -19.1875 36.6875 C-20.20263672 36.07068359 -20.20263672 36.07068359 -21.23828125 35.44140625 C-22.875 34.125 -22.875 34.125 -23.875 31.125 C-23.215 31.125 -22.555 31.125 -21.875 31.125 C-22.205 30.135 -22.535 29.145 -22.875 28.125 C-19.41 27.63 -19.41 27.63 -15.875 27.125 C-15.875 22.175 -15.875 17.225 -15.875 12.125 C-15.545 12.125 -15.215 12.125 -14.875 12.125 C-14.875 19.715 -14.875 27.305 -14.875 35.125 C-13.225 35.125 -11.575 35.125 -9.875 35.125 C-9.978125 34.031875 -10.08125 32.93875 -10.1875 31.8125 C-10.084375 30.595625 -9.98125 29.37875 -9.875 28.125 C-7.4375 26.3125 -7.4375 26.3125 -4.875 25.125 C-3.55270811 22.48041621 -3.77822806 20.44738699 -3.8125 17.5 C-3.82152344 16.49710938 -3.83054687 15.49421875 -3.83984375 14.4609375 C-3.85144531 13.69007812 -3.86304687 12.91921875 -3.875 12.125 C-4.50148438 12.06441406 -5.12796875 12.00382812 -5.7734375 11.94140625 C-6.59070313 11.85761719 -7.40796875 11.77382813 -8.25 11.6875 C-9.46816406 11.56568359 -9.46816406 11.56568359 -10.7109375 11.44140625 C-12.875 11.125 -12.875 11.125 -14.875 10.125 C-14.215 8.145 -13.555 6.165 -12.875 4.125 C-13.535 4.125 -14.195 4.125 -14.875 4.125 C-14.875 3.465 -14.875 2.805 -14.875 2.125 C-9.76263219 0.05065268 -5.41169107 -0.11924065 0 0 Z " fill="#4E2B0F" transform="translate(124.875,4.875)"/>
<path d="M0 0 C3.77068832 -0.086985 7.54111932 -0.14038579 11.3125 -0.1875 C12.38435547 -0.21263672 13.45621094 -0.23777344 14.56054688 -0.26367188 C15.58857422 -0.27333984 16.61660156 -0.28300781 17.67578125 -0.29296875 C19.0975769 -0.31653442 19.0975769 -0.31653442 20.5480957 -0.34057617 C23 0 23 0 24.83276367 1.39331055 C26 3 26 3 26 5 C26.45375 4.34 26.9075 3.68 27.375 3 C31.33232033 -0.0151012 35.19004145 0.66954483 40 1 C39.34 2.32 38.68 3.64 38 5 C41.18234105 3.24545615 41.18234105 3.24545615 44 1 C45.51928038 0.92820036 47.04167482 0.91607993 48.5625 0.9375 C49.38878906 0.94652344 50.21507812 0.95554687 51.06640625 0.96484375 C51.70449219 0.97644531 52.34257812 0.98804687 53 1 C51.57268007 3.92846676 50.13071088 6.51417063 48 9 C47.34 9 46.68 9 46 9 C45.855625 9.61875 45.71125 10.2375 45.5625 10.875 C45 13 45 13 44 15 C40.7 15 37.4 15 34 15 C34.66 13.68 35.32 12.36 36 11 C35.01 10.67 34.02 10.34 33 10 C32.690625 10.61875 32.38125 11.2375 32.0625 11.875 C31.375 13.25 30.6875 14.625 30 16 C27.05859375 16.4140625 27.05859375 16.4140625 23.4375 16.625 C22.23996094 16.69976562 21.04242188 16.77453125 19.80859375 16.8515625 C18.41833984 16.92503906 18.41833984 16.92503906 17 17 C17 16.34 17 15.68 17 15 C10.07 15 3.14 15 -4 15 C-2.35 12.36 -0.7 9.72 1 7 C0.01 6.67 -0.98 6.34 -2 6 C-1.49396008 3.83125748 -1.00016187 2.00032373 0 0 Z " fill="#FEBF26" transform="translate(166,16)"/>
<path d="M0 0 C0 0.66 0 1.32 0 2 C0.66 2 1.32 2 2 2 C1.67 3.98 1.34 5.96 1 8 C2.093125 7.95875 3.18625 7.9175 4.3125 7.875 C8 8 8 8 11 10 C12.23777572 13.71332715 12.55550683 17.14147956 12 21 C10.1875 24 10.1875 24 8 26 C7.01 26 6.02 26 5 26 C5 28.31 5 30.62 5 33 C3.35 33 1.7 33 0 33 C-0.33 30.36 -0.66 27.72 -1 25 C-2.98 25.66 -4.96 26.32 -7 27 C-7.33 28.65 -7.66 30.3 -8 32 C-13.80808821 26.37926948 -13.52228465 21.92512565 -13.67724609 14.11767578 C-13.54685195 7.72105075 -13.54685195 7.72105075 -11.0625 4.4453125 C-8.73891198 2.94838561 -6.60910671 1.89481999 -4 1 C-2 0 -2 0 0 0 Z " fill="#754E15" transform="translate(110,7)"/>
<path d="M0 0 C4.29 0 8.58 0 13 0 C13 2.31 13 4.62 13 7 C10.69 7 8.38 7 6 7 C6 7.66 6 8.32 6 9 C6.96421875 8.96519531 7.9284375 8.93039063 8.921875 8.89453125 C10.18515625 8.86746094 11.4484375 8.84039062 12.75 8.8125 C14.62945312 8.76029297 14.62945312 8.76029297 16.546875 8.70703125 C20.14109357 9.01197061 21.44725126 9.54394629 24 12 C24.33 11.01 24.66 10.02 25 9 C27.64 9 30.28 9 33 9 C31.70700306 11.88437779 30.34058637 13.87219421 28 16 C29.00445663 18.24071094 29.87754985 19.87754985 31.625 21.625 C32.07875 22.07875 32.5325 22.5325 33 23 C33 23.66 33 24.32 33 25 C31.741875 25.04125 30.48375 25.0825 29.1875 25.125 C28.47980469 25.14820312 27.77210937 25.17140625 27.04296875 25.1953125 C25 25 25 25 22 23 C21.34 23.66 20.68 24.32 20 25 C17.93701172 25.22705078 17.93701172 25.22705078 15.4296875 25.1953125 C14.21901611 25.18781982 14.21901611 25.18781982 12.98388672 25.18017578 C11.44498779 25.15286377 11.44498779 25.15286377 9.875 25.125 C4.986875 25.063125 4.986875 25.063125 0 25 C0 16.75 0 8.5 0 0 Z M13 11 C13 12.32 13 13.64 13 15 C10.69 15 8.38 15 6 15 C6.33 16.32 6.66 17.64 7 19 C8.98 18.67 10.96 18.34 13 18 C13 19.65 13 21.3 13 23 C14.65 21.35 16.3 19.7 18 18 C16.70700306 15.11562221 15.34058637 13.12780579 13 11 Z " fill="#FB6805" transform="translate(46,11)"/>
<path d="M0 0 C19.8 0 39.6 0 60 0 C59.34 1.65 58.68 3.3 58 5 C54.7 5 51.4 5 48 5 C47.34 6.32 46.68 7.64 46 9 C45.34 9 44.68 9 44 9 C43.57356201 8.35256836 43.14712402 7.70513672 42.70776367 7.03808594 C41.16368805 4.77541441 41.16368805 4.77541441 38.5480957 4.45410156 C37.60023193 4.4331543 36.65236816 4.41220703 35.67578125 4.390625 C34.64775391 4.35839844 33.61972656 4.32617188 32.56054688 4.29296875 C31.48869141 4.27878906 30.41683594 4.26460937 29.3125 4.25 C28.22904297 4.22035156 27.14558594 4.19070312 26.02929688 4.16015625 C23.35278941 4.08941156 20.67715521 4.03673844 18 4 C17.34 5.98 16.68 7.96 16 10 C17.32 10.33 18.64 10.66 20 11 C18.35 13.31 16.7 15.62 15 18 C14.67 17.34 14.34 16.68 14 16 C14.33 15.34 14.66 14.68 15 14 C10.05 14 5.1 14 0 14 C0 9.38 0 4.76 0 0 Z " fill="#FECD05" transform="translate(148,12)"/>
<path d="M0 0 C0.85078125 0.04833984 1.7015625 0.09667969 2.578125 0.14648438 C3.46757813 0.20255859 4.35703125 0.25863281 5.2734375 0.31640625 C6.170625 0.36861328 7.0678125 0.42082031 7.9921875 0.47460938 C10.21127762 0.60444975 12.42993621 0.73941964 14.6484375 0.87890625 C14.6484375 3.18890625 14.6484375 5.49890625 14.6484375 7.87890625 C13.9884375 6.88890625 13.3284375 5.89890625 12.6484375 4.87890625 C11.6584375 6.36390625 11.6584375 6.36390625 10.6484375 7.87890625 C11.9684375 8.53890625 13.2884375 9.19890625 14.6484375 9.87890625 C14.6484375 10.86890625 14.6484375 11.85890625 14.6484375 12.87890625 C13.3284375 12.87890625 12.0084375 12.87890625 10.6484375 12.87890625 C11.8859375 14.20921875 11.8859375 14.20921875 13.1484375 15.56640625 C15.01525897 17.80341895 15.61580146 18.67376544 16.0859375 21.62890625 C15.6484375 23.87890625 15.6484375 23.87890625 13.6484375 25.87890625 C10.0234375 26.00390625 10.0234375 26.00390625 6.6484375 25.87890625 C6.9784375 24.55890625 7.3084375 23.23890625 7.6484375 21.87890625 C8.9684375 22.20890625 10.2884375 22.53890625 11.6484375 22.87890625 C10.89693727 19.60117121 10.89693727 19.60117121 7.6484375 17.87890625 C6.9884375 18.53890625 6.3284375 19.19890625 5.6484375 19.87890625 C5.3184375 16.90890625 4.9884375 13.93890625 4.6484375 10.87890625 C2.36979167 10.65104167 0.09114583 10.42317708 -2.1875 10.1953125 C-4.3515625 9.87890625 -4.3515625 9.87890625 -6.3515625 8.87890625 C-5.6915625 6.89890625 -5.0315625 4.91890625 -4.3515625 2.87890625 C-5.0115625 2.87890625 -5.6715625 2.87890625 -6.3515625 2.87890625 C-6.3515625 2.21890625 -6.3515625 1.55890625 -6.3515625 0.87890625 C-3.94721244 -0.32326878 -2.66774881 -0.16006493 0 0 Z " fill="#522D0E" transform="translate(116.3515625,6.12109375)"/>
<path d="M0 0 C1.45019531 0.04060547 1.45019531 0.04060547 2.9296875 0.08203125 C3.65414062 0.11683594 4.37859375 0.15164062 5.125 0.1875 C5.125 4.1875 5.125 4.1875 3.94921875 5.8125 C2.125 7.1875 2.125 7.1875 -0.35546875 8.125 C-3.6918099 9.43450187 -5.51503137 10.45149241 -7.875 13.1875 C-9.56314978 20.00652344 -9.33784159 28.50517461 -6.7421875 35.0390625 C-4.24351233 37.91410715 -1.57774131 39.28809597 1.8125 41 C2.72225586 41.46696289 2.72225586 41.46696289 3.65039062 41.94335938 C5.13575619 42.70358584 6.62957634 43.44725462 8.125 44.1875 C8.125 44.5175 8.125 44.8475 8.125 45.1875 C3.00740226 45.82719972 0.13996384 44.46737497 -3.9765625 41.68359375 C-7.92420785 38.57258929 -11.00680125 35.27418936 -11.875 30.1875 C-11.95620233 28.0898604 -11.98255808 25.98981238 -11.97265625 23.890625 C-11.96943359 22.68535156 -11.96621094 21.48007812 -11.96289062 20.23828125 C-11.95451172 18.98402344 -11.94613281 17.72976562 -11.9375 16.4375 C-11.93298828 15.16777344 -11.92847656 13.89804688 -11.92382812 12.58984375 C-11.91204556 9.45568164 -11.89559416 6.32161459 -11.875 3.1875 C-7.70134114 0.82820619 -4.79310519 -0.17535751 0 0 Z " fill="#E0C87F" transform="translate(105.875,0.8125)"/>
<path d="M0 0 C2.24940295 -0.08119503 4.49964871 -0.13927819 6.75 -0.1875 C8.00296875 -0.22230469 9.2559375 -0.25710937 10.546875 -0.29296875 C14.14109357 0.01197061 15.44725126 0.54394629 18 3 C18.33 2.01 18.66 1.02 19 0 C21.64 0 24.28 0 27 0 C25.70700306 2.88437779 24.34058637 4.87219421 22 7 C23.00445663 9.24071094 23.87754985 10.87754985 25.625 12.625 C26.07875 13.07875 26.5325 13.5325 27 14 C27 14.66 27 15.32 27 16 C25.741875 16.04125 24.48375 16.0825 23.1875 16.125 C22.47980469 16.14820312 21.77210937 16.17140625 21.04296875 16.1953125 C19 16 19 16 16 14 C15.34 14.66 14.68 15.32 14 16 C11.93701172 16.22705078 11.93701172 16.22705078 9.4296875 16.1953125 C8.53378906 16.18886719 7.63789062 16.18242188 6.71484375 16.17578125 C5.77769531 16.15902344 4.84054688 16.14226563 3.875 16.125 C2.93011719 16.11597656 1.98523437 16.10695313 1.01171875 16.09765625 C-1.32577292 16.07404522 -3.66276123 16.04111516 -6 16 C-6 15.67 -6 15.34 -6 15 C-5.10796875 14.98582031 -4.2159375 14.97164062 -3.296875 14.95703125 C-1.54117188 14.88548828 -1.54117188 14.88548828 0.25 14.8125 C1.41015625 14.77769531 2.5703125 14.74289063 3.765625 14.70703125 C7.78761071 13.82782906 8.81499284 12.39108784 11 9 C9.79618552 6.50638429 8.54571278 4.31856917 7 2 C3.43230448 1.26393501 3.43230448 1.26393501 0 1 C0 0.67 0 0.34 0 0 Z " fill="#DB5B05" transform="translate(52,20)"/>
<path d="M0 0 C11.66666667 0 23.33333333 0 35 0 C35.04241723 2.33294775 35.04092937 4.66702567 35 7 C34 8 34 8 30.18359375 8.09765625 C28.60153318 8.09098089 27.01948841 8.07901875 25.4375 8.0625 C24.63119141 8.05798828 23.82488281 8.05347656 22.99414062 8.04882812 C20.99606244 8.03700518 18.99802217 8.01906914 17 8 C17 7.67 17 7.34 17 7 C15.42798828 6.92652344 15.42798828 6.92652344 13.82421875 6.8515625 C12.44528646 6.77651857 11.0663815 6.70097143 9.6875 6.625 C8.65206055 6.57859375 8.65206055 6.57859375 7.59570312 6.53125 C3.93009211 6.31875081 2.12099208 6.08066139 -1 4 C-0.67 2.68 -0.34 1.36 0 0 Z " fill="#FEC717" transform="translate(215,26)"/>
<path d="M0 0 C3.125 0.1875 3.125 0.1875 6.125 2.1875 C7.66783245 6.81599735 8.03743466 11.26658492 5.9375 15.6875 C4.125 17.1875 4.125 17.1875 1.4375 17.4375 C0.674375 17.355 -0.08875 17.2725 -0.875 17.1875 C-0.875 19.4975 -0.875 21.8075 -0.875 24.1875 C-1.865 24.1875 -2.855 24.1875 -3.875 24.1875 C-3.90387236 20.37501574 -3.92175492 16.5625593 -3.9375 12.75 C-3.94587891 11.66138672 -3.95425781 10.57277344 -3.96289062 9.45117188 C-3.96611328 8.41669922 -3.96933594 7.38222656 -3.97265625 6.31640625 C-3.97789307 5.35806885 -3.98312988 4.39973145 -3.98852539 3.41235352 C-3.81614284 0.0340263 -3.42833605 0.22358713 0 0 Z " fill="#E6AE49" transform="translate(114.875,14.8125)"/>
<path d="M0 0 C1.30517578 0.13921875 1.30517578 0.13921875 2.63671875 0.28125 C3.96123047 0.38953125 3.96123047 0.38953125 5.3125 0.5 C6.30830078 0.63921875 6.30830078 0.63921875 7.32421875 0.78125 C6.66421875 2.10125 6.00421875 3.42125 5.32421875 4.78125 C8.5065598 3.02670615 8.5065598 3.02670615 11.32421875 0.78125 C12.84349913 0.70945036 14.36589357 0.69732993 15.88671875 0.71875 C16.71300781 0.72777344 17.53929687 0.73679687 18.390625 0.74609375 C19.02871094 0.75769531 19.66679687 0.76929687 20.32421875 0.78125 C18.94435918 3.75325523 17.56800845 6.37765686 15.32421875 8.78125 C12.87231445 9.23535156 12.87231445 9.23535156 10 9.171875 C8.97197266 9.15898437 7.94394531 9.14609375 6.88476562 9.1328125 C5.81291016 9.09929688 4.74105469 9.06578125 3.63671875 9.03125 C2.55326172 9.01320313 1.46980469 8.99515625 0.35351562 8.9765625 C-2.32380271 8.92938508 -4.99935034 8.86357249 -7.67578125 8.78125 C-3.63397211 1.06101376 -3.63397211 1.06101376 0 0 Z " fill="#C91E11" transform="translate(198.67578125,16.21875)"/>
<path d="M0 0 C2.25904557 0.03211913 4.37554829 0.19767682 6.59765625 0.59765625 C6.26765625 1.58765625 5.93765625 2.57765625 5.59765625 3.59765625 C8.89765625 3.92765625 12.19765625 4.25765625 15.59765625 4.59765625 C14.59765625 7.59765625 14.59765625 7.59765625 11.59765625 9.59765625 C9.42114258 9.82470703 9.42114258 9.82470703 6.9296875 9.79296875 C6.03701172 9.78652344 5.14433594 9.78007812 4.22460938 9.7734375 C2.83145508 9.74830078 2.83145508 9.74830078 1.41015625 9.72265625 C0.46978516 9.71363281 -0.47058594 9.70460938 -1.43945312 9.6953125 C-3.76067343 9.67174681 -6.08138019 9.63884741 -8.40234375 9.59765625 C-4.05705227 1.00931544 -4.05705227 1.00931544 0 0 Z " fill="#D3131E" transform="translate(170.40234375,21.40234375)"/>
<path d="M0 0 C0.66 0.33 1.32 0.66 2 1 C0.35 3.31 -1.3 5.62 -3 8 C0.3 8 3.6 8 7 8 C7 7.34 7 6.68 7 6 C11.455 6.99 11.455 6.99 16 8 C16 8.33 16 8.66 16 9 C9.07 9 2.14 9 -5 9 C-5 10.32 -5 11.64 -5 13 C-1.828262 14.585869 1.63513822 14.37866445 5.125 14.5625 C6.25615234 14.62727539 6.25615234 14.62727539 7.41015625 14.69335938 C9.27321888 14.7994832 11.13658524 14.90025001 13 15 C12.67 15.66 12.34 16.32 12 17 C-2.19 17 -16.38 17 -31 17 C-31 16.67 -31 16.34 -31 16 C-21.1 15.505 -21.1 15.505 -11 15 C-10.01 12.69 -9.02 10.38 -8 8 C-5.5 5.25 -5.5 5.25 -3 3 C-2.401875 2.401875 -1.80375 1.80375 -1.1875 1.1875 C-0.795625 0.795625 -0.40375 0.40375 0 0 Z " fill="#FDD703" transform="translate(220,17)"/>
<path d="M0 0 C3.62493334 -0.05787784 7.24974857 -0.0935542 10.875 -0.125 C11.90753906 -0.14175781 12.94007813 -0.15851562 14.00390625 -0.17578125 C14.99003906 -0.18222656 15.97617188 -0.18867188 16.9921875 -0.1953125 C18.35899658 -0.21102295 18.35899658 -0.21102295 19.75341797 -0.22705078 C22 0 22 0 24 2 C23.44444444 6.55555556 23.44444444 6.55555556 22 8 C20.48071962 8.07179964 18.95832518 8.08392007 17.4375 8.0625 C16.61121094 8.05347656 15.78492188 8.04445313 14.93359375 8.03515625 C14.29550781 8.02355469 13.65742188 8.01195312 13 8 C13.66 6.68 14.32 5.36 15 4 C9.39 4 3.78 4 -2 4 C-1.34 2.68 -0.68 1.36 0 0 Z " fill="#CA1C13" transform="translate(166,17)"/>
<path d="M0 0 C1.32 0 2.64 0 4 0 C4 5.61 4 11.22 4 17 C-4 17 -4 17 -6 16 C-6 11.05 -6 6.1 -6 1 C-5.01 1 -4.02 1 -3 1 C-3 5.29 -3 9.58 -3 14 C-2.01 14 -1.02 14 0 14 C0 9.38 0 4.76 0 0 Z " fill="#E3BB63" transform="translate(105,15)"/>
<path d="M0 0 C5.61 0 11.22 0 17 0 C17 9.24 17 18.48 17 28 C14.5705484 24.3558226 14.83820425 22.28758728 15 18 C13.68 17.34 12.36 16.68 11 16 C11 15.34 11 14.68 11 14 C12.32 14 13.64 14 15 14 C14.67 13.01 14.34 12.02 14 11 C12.35 10.67 10.7 10.34 9 10 C9.804375 9.236875 10.60875 8.47375 11.4375 7.6875 C14.16799024 5.20569102 14.16799024 5.20569102 15 2 C9.72 2 4.44 2 -1 2 C-0.67 1.34 -0.34 0.68 0 0 Z " fill="#512605" transform="translate(116,5)"/>
<path d="M0 0 C7.26 0 14.52 0 22 0 C19 5 19 5 16.9152832 5.56762695 C15.74485474 5.52835083 15.74485474 5.52835083 14.55078125 5.48828125 C13.70322266 5.47216797 12.85566406 5.45605469 11.98242188 5.43945312 C11.10134766 5.39755859 10.22027344 5.35566406 9.3125 5.3125 C8.41982422 5.28994141 7.52714844 5.26738281 6.60742188 5.24414062 C4.40325728 5.18520574 2.20247328 5.10300818 0 5 C-0.33 4.01 -0.66 3.02 -1 2 C-0.67 1.34 -0.34 0.68 0 0 Z " fill="#D5221F" transform="translate(215,26)"/>
<path d="M0 0 C0.763125 0.20625 1.52625 0.4125 2.3125 0.625 C2.3125 1.615 2.3125 2.605 2.3125 3.625 C0.9925 3.625 -0.3275 3.625 -1.6875 3.625 C-0.8625 4.511875 -0.0375 5.39875 0.8125 6.3125 C2.67932147 8.5495127 3.27986396 9.41985919 3.75 12.375 C3.3125 14.625 3.3125 14.625 1.3125 16.625 C-2.3125 16.75 -2.3125 16.75 -5.6875 16.625 C-5.3575 15.305 -5.0275 13.985 -4.6875 12.625 C-2.7075 13.12 -2.7075 13.12 -0.6875 13.625 C-1.3716984 10.52141708 -1.3716984 10.52141708 -3.75 9.3125 C-5.6875 7.625 -5.6875 7.625 -6.125 4.5625 C-5.980625 3.593125 -5.83625 2.62375 -5.6875 1.625 C-2.6875 -0.375 -2.6875 -0.375 0 0 Z " fill="#E0992D" transform="translate(128.6875,15.375)"/>
<path d="M0 0 C0 6.27 0 12.54 0 19 C-0.33 19 -0.66 19 -1 19 C-1 14.71 -1 10.42 -1 6 C-1.99 6 -2.98 6 -4 6 C-4 10.95 -4 15.9 -4 21 C-1.69 21.33 0.62 21.66 3 22 C2.01 22.66 1.02 23.32 0 24 C-0.72965366 26.56282742 -0.72965366 26.56282742 -1 29 C-5.52675282 24.61927147 -6.18920205 22.41680239 -6.33203125 16.265625 C-6.34621094 15.39421875 -6.36039062 14.5228125 -6.375 13.625 C-6.41238281 12.76132812 -6.44976562 11.89765625 -6.48828125 11.0078125 C-6.57713813 4.61011745 -6.57713813 4.61011745 -3.5390625 1.3984375 C-1 0 -1 0 0 0 Z " fill="#825D1D" transform="translate(103,10)"/>
<path d="M0 0 C0 4 0 4 -1.17578125 5.58203125 C-3.39116612 7.30405418 -5.65921014 8.47260747 -8.1875 9.6875 C-9.53908203 10.34298828 -9.53908203 10.34298828 -10.91796875 11.01171875 C-11.60503906 11.33785156 -12.29210937 11.66398438 -13 12 C-12.67 9.36 -12.34 6.72 -12 4 C-12.66 3.67 -13.32 3.34 -14 3 C-8.99067246 -0.00559652 -5.67276511 -0.29341888 0 0 Z " fill="#F9DEC3" transform="translate(111,1)"/>
<path d="M0 0 C1.33998047 0.06960937 1.33998047 0.06960937 2.70703125 0.140625 C3.60808594 0.17671875 4.50914062 0.2128125 5.4375 0.25 C6.46810547 0.31960937 6.46810547 0.31960937 7.51953125 0.390625 C5.90684433 3.10287118 4.27051251 5.76415312 2.51953125 8.390625 C0.13671875 8.68359375 0.13671875 8.68359375 -2.60546875 8.578125 C-3.51554688 8.55105469 -4.425625 8.52398437 -5.36328125 8.49609375 C-6.06195313 8.46128906 -6.760625 8.42648438 -7.48046875 8.390625 C-3.86760467 0.6090716 -3.86760467 0.6090716 0 0 Z " fill="#C62E0B" transform="translate(224.48046875,16.609375)"/>
<path d="M0 0 C0.33 0 0.66 0 1 0 C1 7.92 1 15.84 1 24 C0.01 23.67 -0.98 23.34 -2 23 C-2.99 23.33 -3.98 23.66 -5 24 C-5.99 22.35 -6.98 20.7 -8 19 C-7.34 19 -6.68 19 -6 19 C-6.33 18.01 -6.66 17.02 -7 16 C-3.535 15.505 -3.535 15.505 0 15 C0 10.05 0 5.1 0 0 Z " fill="#53300E" transform="translate(109,17)"/>
<path d="M0 0 C4.95 0 9.9 0 15 0 C14.34 1.65 13.68 3.3 13 5 C8.71 5 4.42 5 0 5 C0 3.35 0 1.7 0 0 Z " fill="#DF6311" transform="translate(148,26)"/>
<path d="M0 0 C14.78132118 -0.18451025 14.78132118 -0.18451025 21 1 C20.67 1.99 20.34 2.98 20 4 C17.34765625 4.984375 17.34765625 4.984375 14.0625 5.75 C12.98097656 6.01296875 11.89945313 6.2759375 10.78515625 6.546875 C8 7 8 7 6 6 C5.67 5.34 5.34 4.68 5 4 C5.33 3.34 5.66 2.68 6 2 C3.03 1.505 3.03 1.505 0 1 C0 0.67 0 0.34 0 0 Z " fill="#DAA976" transform="translate(104,0)"/>
<path d="M0 0 C3.96 0 7.92 0 12 0 C12 1.65 12 3.3 12 5 C7.05 5 2.1 5 -3 5 C-2.67 4.01 -2.34 3.02 -2 2 C-1.34 2 -0.68 2 0 2 C0 1.34 0 0.68 0 0 Z " fill="#DF6110" transform="translate(238,26)"/>
<path d="M0 0 C1.23556641 0.01740234 1.23556641 0.01740234 2.49609375 0.03515625 C3.32238281 0.04417969 4.14867187 0.05320312 5 0.0625 C5.63808594 0.07410156 6.27617187 0.08570312 6.93359375 0.09765625 C6.60359375 1.08765625 6.27359375 2.07765625 5.93359375 3.09765625 C9.23359375 3.42765625 12.53359375 3.75765625 15.93359375 4.09765625 C15.60359375 5.08765625 15.27359375 6.07765625 14.93359375 7.09765625 C7.50502232 7.24051339 7.50502232 7.24051339 3.93359375 6.09765625 C3.93359375 4.77765625 3.93359375 3.45765625 3.93359375 2.09765625 C0.96359375 3.41765625 -2.00640625 4.73765625 -5.06640625 6.09765625 C-2.77153066 0.13097971 -2.77153066 0.13097971 0 0 Z " fill="#D42B1E" transform="translate(170.06640625,21.90234375)"/>
<path d="M0 0 C0.33 0 0.66 0 1 0 C0.64130147 5.8587427 -0.70548699 9.86236418 -5 14 C-9.61676231 17.220628 -13.90091382 19.51403099 -19.625 18.8125 C-20.73875 18.544375 -21.8525 18.27625 -23 18 C-23 17.67 -23 17.34 -23 17 C-21.906875 16.79375 -20.81375 16.5875 -19.6875 16.375 C-13.31921047 14.77155567 -6.05357394 11.94525736 -2.21875 6.4453125 C-1.1316184 4.26408051 -0.44196341 2.38660239 0 0 Z " fill="#D2A04C" transform="translate(133,29)"/>
<path d="M0 0 C0.99 0.33 1.98 0.66 3 1 C2.360625 1.309375 1.72125 1.61875 1.0625 1.9375 C-1.77843819 4.77843819 -1.56251144 7.13969511 -1.7265625 11.0390625 C-1.81679687 11.68617187 -1.90703125 12.33328125 -2 13 C-2.99 13.495 -2.99 13.495 -4 14 C-4.31241455 16.71446979 -4.51336592 19.33909361 -4.625 22.0625 C-4.66367188 22.82111328 -4.70234375 23.57972656 -4.7421875 24.36132812 C-4.83673562 26.24047195 -4.91946756 28.12020336 -5 30 C-5.33 30 -5.66 30 -6 30 C-6 21.09 -6 12.18 -6 3 C-4.02 2.01 -2.04 1.02 0 0 Z " fill="#C3A965" transform="translate(100,1)"/>
<path d="M0 0 C0.66 0.33 1.32 0.66 2 1 C-0.475 4.465 -0.475 4.465 -3 8 C0.3 8 3.6 8 7 8 C7 7.34 7 6.68 7 6 C9.97 6.66 12.94 7.32 16 8 C16 8.33 16 8.66 16 9 C9.07 9 2.14 9 -5 9 C-5 10.65 -5 12.3 -5 14 C-6.32 14 -7.64 14 -9 14 C-9 9.94556681 -8.43547512 8.45839487 -5.625 5.5 C-4.75875 4.675 -3.8925 3.85 -3 3 C-2.401875 2.401875 -1.80375 1.80375 -1.1875 1.1875 C-0.795625 0.795625 -0.40375 0.40375 0 0 Z " fill="#FED621" transform="translate(220,17)"/>
<path d="M0 0 C3.3 0 6.6 0 10 0 C9.01 1.485 9.01 1.485 8 3 C7.34 3 6.68 3 6 3 C6 3.99 6 4.98 6 6 C3.36 6 0.72 6 -2 6 C-1.34 4.02 -0.68 2.04 0 0 Z " fill="#D21023" transform="translate(196,17)"/>
<path d="M0 0 C1.4540625 0.0309375 1.4540625 0.0309375 2.9375 0.0625 C3.2675 0.7225 3.5975 1.3825 3.9375 2.0625 C2.2875 2.3925 0.6375 2.7225 -1.0625 3.0625 C-1.02769531 3.83335938 -0.99289063 4.60421875 -0.95703125 5.3984375 C-0.92996094 6.40132812 -0.90289062 7.40421875 -0.875 8.4375 C-0.84019531 9.43523438 -0.80539063 10.43296875 -0.76953125 11.4609375 C-0.86621094 12.31945313 -0.96289062 13.17796875 -1.0625 14.0625 C-2.0525 14.7225 -3.0425 15.3825 -4.0625 16.0625 C-4.08935095 13.58326199 -4.10926547 11.1043116 -4.125 8.625 C-4.13756836 7.56442383 -4.13756836 7.56442383 -4.15039062 6.48242188 C-4.15903588 4.67556441 -4.11470011 2.86862397 -4.0625 1.0625 C-3.0625 0.0625 -3.0625 0.0625 0 0 Z " fill="#F7D473" transform="translate(115.0625,14.9375)"/>
<path d="M0 0 C0.33 0 0.66 0 1 0 C1 8.58 1 17.16 1 26 C-1.4294516 22.3558226 -1.16179575 20.28758728 -1 16 C-2.32 15.34 -3.64 14.68 -5 14 C-5 13.34 -5 12.68 -5 12 C-3.68 12 -2.36 12 -1 12 C-0.67 8.04 -0.34 4.08 0 0 Z " fill="#602D02" transform="translate(132,7)"/>
<path d="M0 0 C1.23556641 0.01740234 1.23556641 0.01740234 2.49609375 0.03515625 C3.32238281 0.04417969 4.14867187 0.05320312 5 0.0625 C5.63808594 0.07410156 6.27617187 0.08570312 6.93359375 0.09765625 C5.05859375 3.97265625 5.05859375 3.97265625 3.93359375 5.09765625 C2.41431337 5.16945589 0.89191893 5.18157632 -0.62890625 5.16015625 C-1.45519531 5.15113281 -2.28148437 5.14210938 -3.1328125 5.1328125 C-3.77089844 5.12121094 -4.40898437 5.10960937 -5.06640625 5.09765625 C-2.6606399 0.12573913 -2.6606399 0.12573913 0 0 Z " fill="#D32B1E" transform="translate(192.06640625,25.90234375)"/>
<path d="M0 0 C0 6.27 0 12.54 0 19 C-0.33 19 -0.66 19 -1 19 C-1 14.71 -1 10.42 -1 6 C-1.99 6 -2.98 6 -4 6 C-4 10.29 -4 14.58 -4 19 C-4.33 19 -4.66 19 -5 19 C-5.10792837 16.39472895 -5.18724878 13.79391689 -5.25 11.1875 C-5.30027344 10.08051758 -5.30027344 10.08051758 -5.3515625 8.95117188 C-5.390625 6.79296875 -5.390625 6.79296875 -5 3 C-2.08737864 0 -2.08737864 0 0 0 Z " fill="#8F6839" transform="translate(103,10)"/>
<path d="M0 0 C2.28304899 0.0179485 4.52425196 0.11763285 6.796875 0.33203125 C6.136875 1.98203125 5.476875 3.63203125 4.796875 5.33203125 C1.496875 5.33203125 -1.803125 5.33203125 -5.203125 5.33203125 C-4.06475685 2.29638286 -3.36675282 0.50740069 0 0 Z " fill="#D22A1B" transform="translate(205.203125,25.66796875)"/>
<path d="M0 0 C0 1.65 0 3.3 0 5 C-0.66 5 -1.32 5 -2 5 C-2.268125 5.639375 -2.53625 6.27875 -2.8125 6.9375 C-4 9 -4 9 -7 10 C-6.67 7.36 -6.34 4.72 -6 2 C-6.66 1.67 -7.32 1.34 -8 1 C-5.07175348 0.02391783 -3.04386724 -0.08226668 0 0 Z " fill="#FDE4B2" transform="translate(105,3)"/>
<path d="M0 0 C1.32 0.33 2.64 0.66 4 1 C4 3.97 4 6.94 4 10 C2.68 10.33 1.36 10.66 0 11 C0 7.37 0 3.74 0 0 Z " fill="#593312" transform="translate(114,18)"/>
<path d="M0 0 C2.125 0.9375 2.125 0.9375 4 2 C3.67 3.65 3.34 5.3 3 7 C1.125 7.625 1.125 7.625 -1 8 C-1.66 7.34 -2.32 6.68 -3 6 C-2.75 3.4375 -2.75 3.4375 -2 1 C-1.34 0.67 -0.68 0.34 0 0 Z " fill="#BA4F0C" transform="translate(84,29)"/>
<path d="M0 0 C3.6875 -0.3125 3.6875 -0.3125 7 0 C6.125 3.875 6.125 3.875 5 5 C2.32941149 5.14115161 -0.32432238 5.04247107 -3 5 C-1.9375 2.5 -1.9375 2.5 0 0 Z " fill="#D5092D" transform="translate(223,18)"/>
<path d="M0 0 C2.64 0 5.28 0 8 0 C7.67 1.65 7.34 3.3 7 5 C4.69 5 2.38 5 0 5 C0 3.35 0 1.7 0 0 Z " fill="#D80B28" transform="translate(182,19)"/>
<path d="M0 0 C0.33 0 0.66 0 1 0 C1.268125 0.94875 1.53625 1.8975 1.8125 2.875 C2.74986588 6.25267273 2.74986588 6.25267273 6 8 C4.68 8 3.36 8 2 8 C2 10.31 2 12.62 2 15 C1.01 15 0.02 15 -1 15 C-1.09038099 9.84828377 -0.84681133 5.08086796 0 0 Z " fill="#FBBF4F" transform="translate(112,24)"/>
<path d="M0 0 C3.85025879 0.60355408 6.86101159 1.76772603 10.3125 3.5625 C11.19550781 4.01753906 12.07851562 4.47257812 12.98828125 4.94140625 C13.65214844 5.29074219 14.31601563 5.64007813 15 6 C15 6.33 15 6.66 15 7 C9.7258624 7.6592672 6.90460441 6.06928516 2.63671875 3.2890625 C1 2 1 2 0 0 Z " fill="#C5AC8A" transform="translate(99,39)"/>
<path d="M0 0 C0.99 0 1.98 0 3 0 C3 4.29 3 8.58 3 13 C2.01 12.67 1.02 12.34 0 12 C0 8.04 0 4.08 0 0 Z " fill="#FEDD8F" transform="translate(99,16)"/>
<path d="M0 0 C1.32 0.33 2.64 0.66 4 1 C2.35 3.31 0.7 5.62 -1 8 C-1.33 7.34 -1.66 6.68 -2 6 C-1.67 5.34 -1.34 4.68 -1 4 C-5.95 4 -10.9 4 -16 4 C-16 3.67 -16 3.34 -16 3 C-7.585 2.505 -7.585 2.505 1 2 C0.67 1.34 0.34 0.68 0 0 Z " fill="#FEDC15" transform="translate(164,22)"/>
<path d="M0 0 C0 0.66 0 1.32 0 2 C0.66 2 1.32 2 2 2 C1.67 4.64 1.34 7.28 1 10 C0.34 10 -0.32 10 -1 10 C-1 9.34 -1 8.68 -1 8 C-1.99 7.67 -2.98 7.34 -4 7 C-3.34 7 -2.68 7 -2 7 C-2.66 5.02 -3.32 3.04 -4 1 C-2 0 -2 0 0 0 Z " fill="#65421C" transform="translate(110,7)"/>
<path d="M0 0 C0.99 0 1.98 0 3 0 C3.08121924 1.60332791 3.13929134 3.20784026 3.1875 4.8125 C3.23970703 6.15248047 3.23970703 6.15248047 3.29296875 7.51953125 C3 10 3 10 0 13 C0 8.71 0 4.42 0 0 Z " fill="#FDE89D" transform="translate(106,16)"/>
<path d="M0 0 C3.96 0 7.92 0 12 0 C11.67 0.99 11.34 1.98 11 3 C3.57142857 3.14285714 3.57142857 3.14285714 0 2 C0 1.34 0 0.68 0 0 Z " fill="#D82829" transform="translate(174,26)"/>
<path d="M0 0 C1.98 0 3.96 0 6 0 C5.67 1.65 5.34 3.3 5 5 C2.69 4.67 0.38 4.34 -2 4 C-1.34 2.68 -0.68 1.36 0 0 Z " fill="#D8082E" transform="translate(210,19)"/>
<path d="M0 0 C2.64 0 5.28 0 8 0 C6.60667426 3.36720387 5.0210714 4.9859524 2 7 C2 5.35 2 3.7 2 2 C1.01 2.33 0.02 2.66 -1 3 C-0.67 2.01 -0.34 1.02 0 0 Z " fill="#BD4F05" transform="translate(71,20)"/>
<path d="M0 0 C1.23556641 0.01740234 1.23556641 0.01740234 2.49609375 0.03515625 C3.32238281 0.04417969 4.14867187 0.05320312 5 0.0625 C5.63808594 0.07410156 6.27617187 0.08570312 6.93359375 0.09765625 C6.27359375 1.41765625 5.61359375 2.73765625 4.93359375 4.09765625 C4.60359375 3.43765625 4.27359375 2.77765625 3.93359375 2.09765625 C2.88171875 2.40703125 1.82984375 2.71640625 0.74609375 3.03515625 C-2.19393021 3.85450719 -5.06802248 4.55249556 -8.06640625 5.09765625 C-7.26203125 4.45828125 -6.45765625 3.81890625 -5.62890625 3.16015625 C-1.80886 0.08548488 -1.80886 0.08548488 0 0 Z " fill="#CF330F" transform="translate(212.06640625,16.90234375)"/>
<path d="M0 0 C0.763125 0.20625 1.52625 0.4125 2.3125 0.625 C1.9825 1.615 1.6525 2.605 1.3125 3.625 C-1.1625 2.635 -1.1625 2.635 -3.6875 1.625 C-3.88836443 5.34099191 -3.8394437 6.39708445 -1.6875 9.625 C-3.0075 8.965 -4.3275 8.305 -5.6875 7.625 C-5.875 4.75 -5.875 4.75 -5.6875 1.625 C-2.6875 -0.375 -2.6875 -0.375 0 0 Z " fill="#E1A343" transform="translate(128.6875,15.375)"/>
<path d="M0 0 C3.96 0.33 7.92 0.66 12 1 C9.60236815 3.39763185 8.66726502 3.34280586 5.375 3.625 C4.55773437 3.69976562 3.74046875 3.77453125 2.8984375 3.8515625 C2.27195312 3.90054687 1.64546875 3.94953125 1 4 C0.67 2.68 0.34 1.36 0 0 Z " fill="#EEAF6E" transform="translate(112,2)"/>
<path d="M0 0 C2.125 0.9375 2.125 0.9375 4 2 C-1.23420787 5.27137992 -4.16605611 5.10643764 -10 4 C-10 3.67 -10 3.34 -10 3 C-6.97265625 2.26757812 -6.97265625 2.26757812 -3.9453125 1.53515625 C-1.9414343 1.05153008 -1.9414343 1.05153008 0 0 Z " fill="#A77C48" transform="translate(120,43)"/>
<path d="M0 0 C1.485 0.99 1.485 0.99 3 2 C3 2.66 3 3.32 3 4 C2.01 4 1.02 4 0 4 C0 8.29 0 12.58 0 17 C-0.33 17 -0.66 17 -1 17 C-1.02684679 14.35409986 -1.04676357 11.70846904 -1.0625 9.0625 C-1.07087891 8.30775391 -1.07925781 7.55300781 -1.08789062 6.77539062 C-1.09652441 4.85005687 -1.05224333 2.92464419 -1 1 C-0.67 0.67 -0.34 0.34 0 0 Z " fill="#B48E52" transform="translate(99,12)"/>
<path d="M0 0 C3.63 0 7.26 0 11 0 C11 0.33 11 0.66 11 1 C9.63875 1.433125 9.63875 1.433125 8.25 1.875 C5.67797092 2.76531776 3.38653234 3.71494413 1 5 C0.67 3.35 0.34 1.7 0 0 Z " fill="#4E2C1B" transform="translate(117,7)"/>
<path d="M0 0 C2.5 1.3125 2.5 1.3125 5 3 C5 3.99 5 4.98 5 6 C2.03 5.505 2.03 5.505 -1 5 C-0.67 3.35 -0.34 1.7 0 0 Z " fill="#452107" transform="translate(123,23)"/>
<path d="M0 0 C1.65 0 3.3 0 5 0 C5 0.66 5 1.32 5 2 C5.66 2 6.32 2 7 2 C6.67 2.99 6.34 3.98 6 5 C5.34 5 4.68 5 4 5 C4 4.34 4 3.68 4 3 C2.35 3 0.7 3 -1 3 C-0.67 2.01 -0.34 1.02 0 0 Z " fill="#381270" transform="translate(23,29)"/>
<path d="M0 0 C2.50357861 0.8345262 4.66785852 1.79371992 7 3 C5.25 4.125 5.25 4.125 3 5 C0.75 4.125 0.75 4.125 -1 3 C-0.67 2.01 -0.34 1.02 0 0 Z " fill="#593213" transform="translate(111,41)"/>
<path d="M0 0 C1.32 0 2.64 0 4 0 C3.67 1.65 3.34 3.3 3 5 C0.525 4.01 0.525 4.01 -2 3 C-1.34 2.67 -0.68 2.34 0 2 C0 1.34 0 0.68 0 0 Z " fill="#653D1C" transform="translate(103,34)"/>
<path d="M0 0 C-0.33 1.98 -0.66 3.96 -1 6 C-1.66 6 -2.32 6 -3 6 C-3 5.34 -3 4.68 -3 4 C-4.65 3.67 -6.3 3.34 -8 3 C-8 2.67 -8 2.34 -8 2 C-2.25 0 -2.25 0 0 0 Z " fill="#472508" transform="translate(132,31)"/>
<path d="M0 0 C0.66 0 1.32 0 2 0 C2 2.64 2 5.28 2 8 C1.01 8.33 0.02 8.66 -1 9 C-0.67 6.03 -0.34 3.06 0 0 Z " fill="#EEA838" transform="translate(120,20)"/>
<path d="M0 0 C1.65 0.33 3.3 0.66 5 1 C4.01 1.33 3.02 1.66 2 2 C2.66 3.32 3.32 4.64 4 6 C2.35 5.67 0.7 5.34 -1 5 C-0.67 3.35 -0.34 1.7 0 0 Z " fill="#CA8C2D" transform="translate(125,17)"/>
<path d="M0 0 C1.32 0 2.64 0 4 0 C3.67 3.3 3.34 6.6 3 10 C2.67 10 2.34 10 2 10 C1.34 6.7 0.68 3.4 0 0 Z " fill="#F5B949" transform="translate(117,17)"/>
<path d="M0 0 C0.99 0.33 1.98 0.66 3 1 C2.67 2.98 2.34 4.96 2 7 C1.01 7.33 0.02 7.66 -1 8 C-0.67 5.36 -0.34 2.72 0 0 Z " fill="#FADB98" transform="translate(99,5)"/>
<path d="M0 0 C0.721875 0.103125 1.44375 0.20625 2.1875 0.3125 C1.61 0.56 1.0325 0.8075 0.4375 1.0625 C-2.1127997 2.47933317 -3.83035701 4.18877537 -5.8125 6.3125 C-6.4725 5.9825 -7.1325 5.6525 -7.8125 5.3125 C-3.50480769 0.38942308 -3.50480769 0.38942308 0 0 Z " fill="#461680" transform="translate(35.8125,18.6875)"/>
<path d="M0 0 C0.66 0.33 1.32 0.66 2 1 C2 2.98 2 4.96 2 7 C1.01 7 0.02 7 -1 7 C-0.67 4.69 -0.34 2.38 0 0 Z " fill="#F6B33E" transform="translate(112,32)"/>
<path d="M0 0 C1.65 0 3.3 0 5 0 C5 0.99 5 1.98 5 3 C3.35 3 1.7 3 0 3 C0 2.01 0 1.02 0 0 Z " fill="#AF906D" transform="translate(124,45)"/>
</svg>
