<svg xmlns="http://www.w3.org/2000/svg" xmlns:xlink="http://www.w3.org/1999/xlink" width="719" zoomAndPan="magnify" viewBox="0 0 539.25 345.74999" height="461" preserveAspectRatio="xMidYMid meet" version="1.0"><defs><clipPath id="f9b1143a57"><path d="M 0 0.117188 L 538.5 0.117188 L 538.5 345.386719 L 0 345.386719 Z M 0 0.117188 " clip-rule="nonzero"/></clipPath><clipPath id="07949f54aa"><path d="M 16.476562 0.117188 L 522.023438 0.117188 C 531.125 0.117188 538.5 7.492188 538.5 16.59375 L 538.5 328.90625 C 538.5 338.007812 531.125 345.386719 522.023438 345.386719 L 16.476562 345.386719 C 7.378906 345.386719 0 338.007812 0 328.90625 L 0 16.59375 C 0 7.492188 7.378906 0.117188 16.476562 0.117188 Z M 16.476562 0.117188 " clip-rule="nonzero"/></clipPath><clipPath id="85625fe072"><path d="M 262 105.296875 L 364 105.296875 L 364 240.109375 L 262 240.109375 Z M 262 105.296875 " clip-rule="nonzero"/></clipPath><clipPath id="8628a731b5"><path d="M 356 107 L 477.316406 107 L 477.316406 239 L 356 239 Z M 356 107 " clip-rule="nonzero"/></clipPath><clipPath id="a65a80a8b5"><path d="M 60.894531 107 L 143 107 L 143 179 L 60.894531 179 Z M 60.894531 107 " clip-rule="nonzero"/></clipPath></defs><g clip-path="url(#f9b1143a57)"><g clip-path="url(#07949f54aa)"><path fill="#ffffff" d="M 0 0.117188 L 538.136719 0.117188 L 538.136719 345.386719 L 0 345.386719 Z M 0 0.117188 " fill-opacity="1" fill-rule="nonzero"/><path stroke-linecap="butt" transform="matrix(0.748958, 0, 0, 0.748958, 0, 0.115274)" fill="none" stroke-linejoin="miter" d="M 21.999306 0.00255545 L 696.999334 0.00255545 C 709.151629 0.00255545 718.998639 9.849566 718.998639 22.001861 L 718.998639 438.997706 C 718.998639 451.150001 709.151629 461.002227 696.999334 461.002227 L 21.999306 461.002227 C 9.852226 461.002227 0 451.150001 0 438.997706 L 0 22.001861 C 0 9.849566 9.852226 0.00255545 21.999306 0.00255545 Z M 21.999306 0.00255545 " stroke="#a6a6a6" stroke-width="12" stroke-opacity="1" stroke-miterlimit="4"/></g></g><path fill="#00579f" d="M 241.34375 238.140625 L 207.609375 238.140625 L 228.710938 107.683594 L 262.441406 107.683594 Z M 241.34375 238.140625 " fill-opacity="1" fill-rule="nonzero"/><g clip-path="url(#85625fe072)"><path fill="#00579f" d="M 363.628906 110.871094 C 356.976562 108.230469 346.421875 105.316406 333.375 105.316406 C 300.0625 105.316406 276.601562 123.082031 276.457031 148.476562 C 276.183594 167.214844 293.253906 177.621094 306.023438 183.871094 C 319.074219 190.253906 323.511719 194.421875 323.511719 200.113281 C 323.378906 208.851562 312.964844 212.878906 303.253906 212.878906 C 289.785156 212.878906 282.566406 210.804688 271.601562 205.941406 L 267.160156 203.855469 L 262.4375 233.140625 C 270.351562 236.746094 284.925781 239.945312 300.0625 240.085938 C 335.457031 240.085938 358.5 222.597656 358.773438 195.53125 C 358.90625 180.679688 349.890625 169.300781 330.457031 160.003906 C 318.660156 154.035156 311.433594 150.007812 311.433594 143.902344 C 311.570312 138.347656 317.542969 132.664062 330.863281 132.664062 C 341.828125 132.382812 349.886719 135.019531 355.992188 137.65625 L 359.042969 139.042969 Z M 363.628906 110.871094 " fill-opacity="1" fill-rule="nonzero"/></g><g clip-path="url(#8628a731b5)"><path fill="#00579f" d="M 408.464844 191.925781 C 411.242188 184.429688 421.929688 155.421875 421.929688 155.421875 C 421.789062 155.703125 424.703125 147.789062 426.367188 142.933594 L 428.726562 154.175781 C 428.726562 154.175781 435.113281 185.402344 436.5 191.925781 C 431.230469 191.925781 415.125 191.925781 408.464844 191.925781 Z M 450.101562 107.683594 L 424.007812 107.683594 C 415.964844 107.683594 409.851562 110.039062 406.378906 118.507812 L 356.273438 238.140625 L 391.667969 238.140625 C 391.667969 238.140625 397.496094 222.039062 398.746094 218.570312 C 402.628906 218.570312 437.0625 218.570312 442.058594 218.570312 C 443.027344 223.148438 446.082031 238.140625 446.082031 238.140625 L 477.316406 238.140625 Z M 450.101562 107.683594 " fill-opacity="1" fill-rule="nonzero"/></g><path fill="#00579f" d="M 179.4375 107.683594 L 146.398438 196.640625 L 142.789062 178.601562 C 136.683594 157.78125 117.527344 135.164062 96.152344 123.917969 L 126.410156 238.003906 L 162.082031 238.003906 L 215.105469 107.683594 Z M 179.4375 107.683594 " fill-opacity="1" fill-rule="nonzero"/><g clip-path="url(#a65a80a8b5)"><path fill="#faa61a" d="M 115.722656 107.683594 L 61.449219 107.683594 L 60.894531 110.320312 C 103.230469 121.144531 131.269531 147.242188 142.789062 178.605469 L 130.992188 118.648438 C 129.050781 110.316406 123.078125 107.957031 115.722656 107.683594 Z M 115.722656 107.683594 " fill-opacity="1" fill-rule="nonzero"/></g></svg>